  0
SECTION
  2
HEADER
  9
$ACADVER
  1
AC1032
  9
$ACADMAINTVER
 90
      327
  9
$DWGCODEPAGE
  3
ANSI_1252
  9
$LASTSAVEDBY
  1
Dell - I
  9
$REQUIREDVERSIONS
160
                 0
  9
$INSBASE
 10
0.0
 20
0.0
 30
0.0
  9
$EXTMIN
 10
-0.0042167714744373
 20
-0.002
 30
0.0
  9
$EXTMAX
 10
0.0042167714744373
 20
0.002
 30
0.0
  9
$LIMMIN
 10
0.0
 20
0.0
  9
$LIMMAX
 10
420.0
 20
297.0
  9
$ORTHOMODE
 70
     0
  9
$REGENMODE
 70
     1
  9
$FILLMODE
 70
     1
  9
$QTEXTMODE
 70
     0
  9
$MIRRTEXT
 70
     1
  9
$LTSCALE
 40
1.0
  9
$ATTMODE
 70
     1
  9
$TEXTSIZE
 40
2.5
  9
$TRACEWID
 40
1.0
  9
$TEXTSTYLE
  7
Standard
  9
$CLAYER
  8
0
  9
$CELTYPE
  6
ByLayer
  9
$CECOLOR
 62
   256
  9
$CELTSCALE
 40
1.0
  9
$DISPSILH
 70
     0
  9
$DIMSCALE
 40
1.0
  9
$DIMASZ
 40
2.5
  9
$DIMEXO
 40
0.625
  9
$DIMDLI
 40
3.75
  9
$DIMRND
 40
0.0
  9
$DIMDLE
 40
0.0
  9
$DIMEXE
 40
1.25
  9
$DIMTP
 40
0.0
  9
$DIMTM
 40
0.0
  9
$DIMTXT
 40
2.5
  9
$DIMCEN
 40
2.5
  9
$DIMTSZ
 40
0.0
  9
$DIMTOL
 70
     0
  9
$DIMLIM
 70
     0
  9
$DIMTIH
 70
     0
  9
$DIMTOH
 70
     0
  9
$DIMSE1
 70
     0
  9
$DIMSE2
 70
     0
  9
$DIMTAD
 70
     1
  9
$DIMZIN
 70
     8
  9
$DIMBLK
  1

  9
$DIMASO
 70
     1
  9
$DIMSHO
 70
     1
  9
$DIMPOST
  1

  9
$DIMAPOST
  1

  9
$DIMALT
 70
     0
  9
$DIMALTD
 70
     3
  9
$DIMALTF
 40
0.03937007874
  9
$DIMLFAC
 40
1.0
  9
$DIMTOFL
 70
     1
  9
$DIMTVP
 40
0.0
  9
$DIMTIX
 70
     0
  9
$DIMSOXD
 70
     0
  9
$DIMSAH
 70
     0
  9
$DIMBLK1
  1

  9
$DIMBLK2
  1

  9
$DIMSTYLE
  2
Standard
  9
$DIMCLRD
 70
     0
  9
$DIMCLRE
 70
     0
  9
$DIMCLRT
 70
     0
  9
$DIMTFAC
 40
1.0
  9
$DIMGAP
 40
0.625
  9
$DIMJUST
 70
     0
  9
$DIMSD1
 70
     0
  9
$DIMSD2
 70
     0
  9
$DIMTOLJ
 70
     0
  9
$DIMTZIN
 70
     8
  9
$DIMALTZ
 70
     0
  9
$DIMALTTZ
 70
     0
  9
$DIMUPT
 70
     0
  9
$DIMDEC
 70
     2
  9
$DIMTDEC
 70
     2
  9
$DIMALTU
 70
     2
  9
$DIMALTTD
 70
     3
  9
$DIMTXSTY
  7
Standard
  9
$DIMAUNIT
 70
     0
  9
$DIMADEC
 70
     0
  9
$DIMALTRND
 40
0.0
  9
$DIMAZIN
 70
     0
  9
$DIMDSEP
 70
    44
  9
$DIMATFIT
 70
     3
  9
$DIMFRAC
 70
     0
  9
$DIMLDRBLK
  1

  9
$DIMLUNIT
 70
     2
  9
$DIMLWD
 70
    -2
  9
$DIMLWE
 70
    -2
  9
$DIMTMOVE
 70
     0
  9
$DIMFXL
 40
1.0
  9
$DIMFXLON
 70
     0
  9
$DIMJOGANG
 40
0.785398163397
  9
$DIMTFILL
 70
     0
  9
$DIMTFILLCLR
 70
     0
  9
$DIMARCSYM
 70
     0
  9
$DIMLTYPE
  6

  9
$DIMLTEX1
  6

  9
$DIMLTEX2
  6

  9
$DIMTXTDIRECTION
 70
     0
  9
$LUNITS
 70
     2
  9
$LUPREC
 70
     4
  9
$SKETCHINC
 40
1.0
  9
$FILLETRAD
 40
10.0
  9
$AUNITS
 70
     0
  9
$AUPREC
 70
     2
  9
$MENU
  1
.
  9
$ELEVATION
 40
0.0
  9
$PELEVATION
 40
0.0
  9
$THICKNESS
 40
0.0
  9
$LIMCHECK
 70
     0
  9
$CHAMFERA
 40
0.0
  9
$CHAMFERB
 40
0.0
  9
$CHAMFERC
 40
0.0
  9
$CHAMFERD
 40
0.0
  9
$SKPOLY
 70
     0
  9
$TDCREATE
 40
2458532.362326389
  9
$TDUCREATE
 40
2458532.153996898
  9
$TDUPDATE
 40
2460850.833750000
  9
$TDUUPDATE
 40
2460850.625416667
  9
$TDINDWG
 40
0.0009606481
  9
$TDUSRTIMER
 40
0.0009606481
  9
$USRTIMER
 70
     1
  9
$ANGBASE
 50
0.0
  9
$ANGDIR
 70
     0
  9
$PDMODE
 70
     2
  9
$PDSIZE
 40
0.0
  9
$PLINEWID
 40
0.0
  9
$SPLFRAME
 70
     0
  9
$SPLINETYPE
 70
     6
  9
$SPLINESEGS
 70
     8
  9
$HANDSEED
  5
13D
  9
$SURFTAB1
 70
     6
  9
$SURFTAB2
 70
     6
  9
$SURFTYPE
 70
     6
  9
$SURFU
 70
     6
  9
$SURFV
 70
     6
  9
$UCSBASE
  2

  9
$UCSNAME
  2

  9
$UCSORG
 10
0.0
 20
0.0
 30
0.0
  9
$UCSXDIR
 10
1.0
 20
0.0
 30
0.0
  9
$UCSYDIR
 10
0.0
 20
1.0
 30
0.0
  9
$UCSORTHOREF
  2

  9
$UCSORTHOVIEW
 70
     0
  9
$UCSORGTOP
 10
0.0
 20
0.0
 30
0.0
  9
$UCSORGBOTTOM
 10
0.0
 20
0.0
 30
0.0
  9
$UCSORGLEFT
 10
0.0
 20
0.0
 30
0.0
  9
$UCSORGRIGHT
 10
0.0
 20
0.0
 30
0.0
  9
$UCSORGFRONT
 10
0.0
 20
0.0
 30
0.0
  9
$UCSORGBACK
 10
0.0
 20
0.0
 30
0.0
  9
$PUCSBASE
  2

  9
$PUCSNAME
  2

  9
$PUCSORG
 10
0.0
 20
0.0
 30
0.0
  9
$PUCSXDIR
 10
1.0
 20
0.0
 30
0.0
  9
$PUCSYDIR
 10
0.0
 20
1.0
 30
0.0
  9
$PUCSORTHOREF
  2

  9
$PUCSORTHOVIEW
 70
     0
  9
$PUCSORGTOP
 10
0.0
 20
0.0
 30
0.0
  9
$PUCSORGBOTTOM
 10
0.0
 20
0.0
 30
0.0
  9
$PUCSORGLEFT
 10
0.0
 20
0.0
 30
0.0
  9
$PUCSORGRIGHT
 10
0.0
 20
0.0
 30
0.0
  9
$PUCSORGFRONT
 10
0.0
 20
0.0
 30
0.0
  9
$PUCSORGBACK
 10
0.0
 20
0.0
 30
0.0
  9
$USERI1
 70
     0
  9
$USERI2
 70
     0
  9
$USERI3
 70
     0
  9
$USERI4
 70
     0
  9
$USERI5
 70
     0
  9
$USERR1
 40
0.0
  9
$USERR2
 40
0.0
  9
$USERR3
 40
0.0
  9
$USERR4
 40
0.0
  9
$USERR5
 40
0.0
  9
$WORLDVIEW
 70
     1
  9
$SHADEDGE
 70
     3
  9
$SHADEDIF
 70
    70
  9
$TILEMODE
 70
     1
  9
$MAXACTVP
 70
    64
  9
$PINSBASE
 10
0.0
 20
0.0
 30
0.0
  9
$PLIMCHECK
 70
     0
  9
$PEXTMIN
 10
1.000000000000000E+20
 20
1.000000000000000E+20
 30
1.000000000000000E+20
  9
$PEXTMAX
 10
-1.000000000000000E+20
 20
-1.000000000000000E+20
 30
-1.000000000000000E+20
  9
$PLIMMIN
 10
0.0
 20
0.0
  9
$PLIMMAX
 10
420.0
 20
297.0
  9
$UNITMODE
 70
     0
  9
$VISRETAIN
 70
     1
  9
$PLINEGEN
 70
     0
  9
$PSLTSCALE
 70
     1
  9
$TREEDEPTH
 70
  3020
  9
$CMLSTYLE
  2
Standard
  9
$CMLJUST
 70
     0
  9
$CMLSCALE
 40
20.0
  9
$PROXYGRAPHICS
 70
     1
  9
$MEASUREMENT
 70
     1
  9
$CELWEIGHT
370
    -1
  9
$ENDCAPS
280
     0
  9
$JOINSTYLE
280
     0
  9
$LWDISPLAY
290
     0
  9
$INSUNITS
 70
     6
  9
$HYPERLINKBASE
  1

  9
$STYLESHEET
  1

  9
$XEDIT
290
     1
  9
$CEPSNTYPE
380
     0
  9
$PSTYLEMODE
290
     1
  9
$FINGERPRINTGUID
  2
{C7CF2AE6-55DF-4C4E-B146-2693AAC511B8}
  9
$VERSIONGUID
  2
{5CFE58FC-6227-F544-9B33-464BAE1EEA78}
  9
$EXTNAMES
290
     1
  9
$PSVPSCALE
 40
0.0
  9
$OLESTARTUP
290
     0
  9
$SORTENTS
280
   127
  9
$INDEXCTL
280
     0
  9
$HIDETEXT
280
     1
  9
$XCLIPFRAME
280
     1
  9
$HALOGAP
280
     0
  9
$OBSCOLOR
 70
   257
  9
$OBSLTYPE
280
     0
  9
$INTERSECTIONDISPLAY
280
     0
  9
$INTERSECTIONCOLOR
 70
   257
  9
$DIMASSOC
280
     2
  9
$PROJECTNAME
  1

  9
$CAMERADISPLAY
290
     0
  9
$LENSLENGTH
 40
50.0
  9
$CAMERAHEIGHT
 40
0.0
  9
$STEPSPERSEC
 40
24.0
  9
$STEPSIZE
 40
100.0
  9
$3DDWFPREC
 40
2.0
  9
$PSOLWIDTH
 40
0.005
  9
$PSOLHEIGHT
 40
0.08
  9
$LOFTANG1
 40
1.570796326795
  9
$LOFTANG2
 40
1.570796326795
  9
$LOFTMAG1
 40
0.0
  9
$LOFTMAG2
 40
0.0
  9
$LOFTPARAM
 70
     7
  9
$LOFTNORMALS
280
     1
  9
$LATITUDE
 40
37.795
  9
$LONGITUDE
 40
-122.394
  9
$NORTHDIRECTION
 40
0.0
  9
$TIMEZONE
 70
 -8000
  9
$LIGHTGLYPHDISPLAY
280
     1
  9
$TILEMODELIGHTSYNCH
280
     1
  9
$CMATERIAL
347
20
  9
$SOLIDHIST
280
     0
  9
$SHOWHIST
280
     1
  9
$DWFFRAME
280
     2
  9
$DGNFRAME
280
     2
  9
$REALWORLDSCALE
290
     1
  9
$INTERFERECOLOR
 62
   256
  9
$INTERFEREOBJVS
345
100
  9
$INTERFEREVPVS
346
FD
  9
$CSHADOW
280
     0
  9
$SHADOWPLANELOCATION
 40
0.0
  0
ENDSEC
  0
SECTION
  2
CLASSES
  0
CLASS
  1
ACDBDICTIONARYWDFLT
  2
AcDbDictionaryWithDefault
  3
ObjectDBX Classes
 90
        0
 91
        1
280
     0
281
     0
  0
CLASS
  1
SUN
  2
AcDbSun
  3
SCENEOE
 90
     1153
 91
        0
280
     0
281
     0
  0
CLASS
  1
VISUALSTYLE
  2
AcDbVisualStyle
  3
ObjectDBX Classes
 90
     4095
 91
       24
280
     0
281
     0
  0
CLASS
  1
MATERIAL
  2
AcDbMaterial
  3
ObjectDBX Classes
 90
     1153
 91
        3
280
     0
281
     0
  0
CLASS
  1
SCALE
  2
AcDbScale
  3
ObjectDBX Classes
 90
     1153
 91
       17
280
     0
281
     0
  0
CLASS
  1
TABLESTYLE
  2
AcDbTableStyle
  3
ObjectDBX Classes
 90
     4095
 91
        1
280
     0
281
     0
  0
CLASS
  1
MLEADERSTYLE
  2
AcDbMLeaderStyle
  3
ACDB_MLEADERSTYLE_CLASS
 90
     4095
 91
        1
280
     0
281
     0
  0
CLASS
  1
DICTIONARYVAR
  2
AcDbDictionaryVar
  3
ObjectDBX Classes
 90
        0
 91
        7
280
     0
281
     0
  0
CLASS
  1
CELLSTYLEMAP
  2
AcDbCellStyleMap
  3
ObjectDBX Classes
 90
     1152
 91
        2
280
     0
281
     0
  0
CLASS
  1
MENTALRAYRENDERSETTINGS
  2
AcDbMentalRayRenderSettings
  3
SCENEOE
 90
     1024
 91
        0
280
     0
281
     0
  0
CLASS
  1
ACDBDETAILVIEWSTYLE
  2
AcDbDetailViewStyle
  3
ObjectDBX Classes
 90
     1025
 91
        1
280
     0
281
     0
  0
CLASS
  1
ACDBSECTIONVIEWSTYLE
  2
AcDbSectionViewStyle
  3
ObjectDBX Classes
 90
     1025
 91
        1
280
     0
281
     0
  0
CLASS
  1
RASTERVARIABLES
  2
AcDbRasterVariables
  3
ISM
 90
        0
 91
        0
280
     0
281
     0
  0
ENDSEC
  0
SECTION
  2
TABLES
  0
TABLE
  2
VPORT
  5
8
330
0
100
AcDbSymbolTable
 70
     1
  0
VPORT
  5
23
330
8
100
AcDbSymbolTableRecord
100
AcDbViewportTableRecord
  2
*Active
 70
     0
 10
0.0
 20
0.0
 11
1.0
 21
1.0
 12
-0.0016141891039267
 22
0.0002424487631899
 13
0.0
 23
0.0
 14
0.5
 24
0.5
 15
0.5
 25
0.5
 16
0.0
 26
0.0
 36
1.0
 17
0.0
 27
0.0
 37
0.0
 40
0.0086708589774929
 41
2.36509900990099
 42
50.0
 43
0.0
 44
0.0
 50
0.0
 51
0.0
 71
     0
 72
  1000
 73
     1
 74
     3
 75
     0
 76
     0
 77
     0
 78
     0
281
     0
 65
     0
110
0.0
120
0.0
130
0.0
111
1.0
121
0.0
131
0.0
112
0.0
122
1.0
132
0.0
 79
     0
146
0.0
348
FC
 60
     3
 61
     5
292
     1
282
     1
141
0.0
142
0.0
 63
   250
421
  3355443
1001
ACAD_NAV_VCDISPLAY
1070
     3
  0
ENDTAB
  0
TABLE
  2
LTYPE
  5
2
330
0
100
AcDbSymbolTable
 70
     1
  0
LTYPE
  5
24
330
2
100
AcDbSymbolTableRecord
100
AcDbLinetypeTableRecord
  2
ByBlock
 70
     0
  3

 72
    65
 73
     0
 40
0.0
  0
LTYPE
  5
25
330
2
100
AcDbSymbolTableRecord
100
AcDbLinetypeTableRecord
  2
ByLayer
 70
     0
  3

 72
    65
 73
     0
 40
0.0
  0
LTYPE
  5
26
330
2
100
AcDbSymbolTableRecord
100
AcDbLinetypeTableRecord
  2
Continuous
 70
     0
  3

 72
    65
 73
     0
 40
0.0
  0
ENDTAB
  0
TABLE
  2
LAYER
  5
1
330
0
100
AcDbSymbolTable
 70
     4
  0
LAYER
  5
27
330
1
100
AcDbSymbolTableRecord
100
AcDbLayerTableRecord
  2
0
 70
     0
 62
     7
  6
Continuous
370
    -3
390
13
347
21
348
0
  0
LAYER
  5
28
330
1
100
AcDbSymbolTableRecord
100
AcDbLayerTableRecord
  2
Defpoints
 70
     0
 62
     7
  6
Continuous
290
     0
370
    -3
390
13
347
21
348
0
  0
LAYER
  5
F5
330
1
100
AcDbSymbolTableRecord
100
AcDbLayerTableRecord
  2
Level 7
 70
     0
 62
     7
  6
Continuous
370
    -3
390
13
347
21
348
0
  0
LAYER
  5
F6
330
1
100
AcDbSymbolTableRecord
100
AcDbLayerTableRecord
  2
Level 59
 70
     0
 62
     7
  6
Continuous
370
    -3
390
13
347
21
348
0
  0
ENDTAB
  0
TABLE
  2
STYLE
  5
5
330
0
100
AcDbSymbolTable
 70
     1
  0
STYLE
  5
29
330
5
100
AcDbSymbolTableRecord
100
AcDbTextStyleTableRecord
  2
Standard
 70
     0
 40
0.0
 41
1.0
 50
0.0
 71
     0
 42
2.5
  3
txt
  4

  0
ENDTAB
  0
TABLE
  2
VIEW
  5
7
330
0
100
AcDbSymbolTable
 70
     0
  0
ENDTAB
  0
TABLE
  2
UCS
  5
6
330
0
100
AcDbSymbolTable
 70
     0
  0
ENDTAB
  0
TABLE
  2
APPID
  5
3
330
0
100
AcDbSymbolTable
 70
     4
  0
APPID
  5
2A
330
3
100
AcDbSymbolTableRecord
100
AcDbRegAppTableRecord
  2
ACAD
 70
     0
  0
APPID
  5
F0
330
3
100
AcDbSymbolTableRecord
100
AcDbRegAppTableRecord
  2
HATCHBACKGROUNDCOLOR
 70
     0
  0
APPID
  5
F1
330
3
100
AcDbSymbolTableRecord
100
AcDbRegAppTableRecord
  2
EZDXF
 70
     0
  0
APPID
  5
131
330
3
100
AcDbSymbolTableRecord
100
AcDbRegAppTableRecord
  2
ACAD_NAV_VCDISPLAY
 70
     0
  0
ENDTAB
  0
TABLE
  2
DIMSTYLE
  5
4
330
0
100
AcDbSymbolTable
 70
     1
100
AcDbDimStyleTable
 71
     0
  0
DIMSTYLE
105
2B
330
4
100
AcDbSymbolTableRecord
100
AcDbDimStyleTableRecord
  2
Standard
 70
     0
 41
2.5
 42
0.625
 43
3.75
 44
1.25
 49
2.5
 73
     0
 74
     0
 77
     1
 78
     8
 79
     3
140
2.5
141
2.5
143
0.03937007874
147
0.625
171
     3
172
     1
179
     2
271
     2
272
     2
274
     3
278
    44
283
     0
284
     8
340
29
  0
ENDTAB
  0
TABLE
  2
BLOCK_RECORD
  5
9
330
0
100
AcDbSymbolTable
 70
     1
  0
BLOCK_RECORD
  5
17
330
9
100
AcDbSymbolTableRecord
100
AcDbBlockTableRecord
  2
*Model_Space
340
1A
 70
     0
280
     1
281
     0
  0
BLOCK_RECORD
  5
1B
330
9
100
AcDbSymbolTableRecord
100
AcDbBlockTableRecord
  2
*Paper_Space
340
1E
 70
     0
280
     1
281
     0
  0
BLOCK_RECORD
  5
2F
330
9
100
AcDbSymbolTableRecord
100
AcDbBlockTableRecord
  2
01015A
340
0
102
{BLKREFS
331
EE
102
}
 70
     0
280
     1
281
     0
  0
ENDTAB
  0
ENDSEC
  0
SECTION
  2
BLOCKS
  0
BLOCK
  5
18
330
17
100
AcDbEntity
  8
0
100
AcDbBlockBegin
  2
*Model_Space
 70
     0
 10
0.0
 20
0.0
 30
0.0
  3
*Model_Space
  1

  0
ENDBLK
  5
19
330
17
100
AcDbEntity
  8
0
100
AcDbBlockEnd
  0
BLOCK
  5
1C
330
1B
100
AcDbEntity
 67
     1
  8
0
100
AcDbBlockBegin
  2
*Paper_Space
 70
     0
 10
0.0
 20
0.0
 30
0.0
  3
*Paper_Space
  1

  0
ENDBLK
  5
1D
330
1B
100
AcDbEntity
 67
     1
  8
0
100
AcDbBlockEnd
  0
BLOCK
  5
30
330
2F
100
AcDbEntity
  8
0
100
AcDbBlockBegin
  2
01015A
 70
     0
 10
0.0
 20
0.0
 30
0.0
  3
01015A
  1

  0
LINE
  5
32
330
2F
100
AcDbEntity
  8
Level 7
  6
Continuous
 62
     2
370
    30
100
AcDbLine
 10
0.0
 20
0.0014999999999999
 30
0.0
 11
-0.0015
 21
0.0
 31
0.0
  0
LINE
  5
33
330
2F
100
AcDbEntity
  8
Level 7
  6
Continuous
 62
     2
370
    30
100
AcDbLine
 10
-0.0015
 20
0.0
 30
0.0
 11
0.0
 21
-0.0015000000000001
 31
0.0
  0
LINE
  5
34
330
2F
100
AcDbEntity
  8
Level 7
  6
Continuous
 62
     2
370
    30
100
AcDbLine
 10
0.0
 20
-0.0015000000000001
 30
0.0
 11
0.0015
 21
0.0
 31
0.0
  0
LINE
  5
35
330
2F
100
AcDbEntity
  8
Level 7
  6
Continuous
 62
     2
370
    30
100
AcDbLine
 10
0.0015
 20
0.0
 30
0.0
 11
0.0
 21
0.0014999999999999
 31
0.0
  0
LINE
  5
36
330
2F
100
AcDbEntity
  8
Level 7
  6
Continuous
 62
     2
370
    30
100
AcDbLine
 10
0.004
 20
0.002
 30
0.0
 11
0.004
 21
-0.002
 31
0.0
  0
LINE
  5
37
330
2F
100
AcDbEntity
  8
Level 7
  6
Continuous
 62
     2
370
    30
100
AcDbLine
 10
-0.004
 20
0.002
 30
0.0
 11
-0.004
 21
-0.002
 31
0.0
  0
LINE
  5
38
330
2F
100
AcDbEntity
  8
Level 7
  6
Continuous
 62
     2
370
    30
100
AcDbLine
 10
-0.004
 20
-0.002
 30
0.0
 11
-0.001
 21
-0.0005000000000001
 31
0.0
  0
LINE
  5
39
330
2F
100
AcDbEntity
  8
Level 7
  6
Continuous
 62
     2
370
    30
100
AcDbLine
 10
0.001
 20
0.0004999999999999
 30
0.0
 11
0.004
 21
0.002
 31
0.0
  0
LINE
  5
3A
330
2F
100
AcDbEntity
  8
Level 7
  6
Continuous
 62
     2
370
    30
100
AcDbLine
 10
0.004
 20
-0.002
 30
0.0
 11
0.001
 21
-0.0005000000000001
 31
0.0
  0
LINE
  5
3B
330
2F
100
AcDbEntity
  8
Level 7
  6
Continuous
 62
     2
370
    30
100
AcDbLine
 10
-0.001
 20
0.0004999999999999
 30
0.0
 11
-0.004
 21
0.002
 31
0.0
  0
LWPOLYLINE
  5
3C
330
2F
100
AcDbEntity
  8
Level 59
  6
Continuous
 62
     2
370
    13
100
AcDbPolyline
 90
        5
 70
   128
 43
0.0
 10
-0.0013750801110873
 20
-0.0000323999755852
 10
-0.0000070970793784
 20
-0.0014011999877925
 10
0.0014316434217355
 20
-0.0000323999755852
 10
-0.0000070970793784
 20
0.0014071999267555
 10
-0.0013750801110873
 20
-0.0000323999755852
  0
LWPOLYLINE
  5
3D
330
2F
100
AcDbEntity
  8
Level 59
  6
Continuous
 62
     2
370
    13
100
AcDbPolyline
 90
        5
 70
   128
 43
0.0
 10
-0.0013373427533798
 20
-0.0000383001190222
 10
-0.0000377587206638
 20
-0.0013386599322489
 10
0.0013290447706534
 20
-0.0000383001190222
 10
-0.0000377587206638
 20
0.0013293200476089
 10
-0.0013373427533798
 20
-0.0000383001190222
  0
LWPOLYLINE
  5
3E
330
2F
100
AcDbEntity
  8
Level 59
  6
Continuous
 62
     2
370
    13
100
AcDbPolyline
 90
        5
 70
   128
 43
0.0
 10
-0.0013038508255256
 20
-0.0000450849940489
 10
-0.0000692458876307
 20
-0.0012804269539476
 10
0.0012292175054172
 20
-0.0000450849940489
 10
-0.0000692458876307
 20
0.0012541541795098
 10
-0.0013038508255256
 20
-0.0000450849940489
  0
LWPOLYLINE
  5
3F
330
2F
100
AcDbEntity
  8
Level 59
  6
Continuous
 62
     2
370
    13
100
AcDbPolyline
 90
        5
 70
   128
 43
0.0
 10
-0.0012720334482862
 20
-0.0000527106540117
 10
-0.0000991586046937
 20
-0.0012262855922116
 10
0.0011343815424055
 20
-0.0000527106540117
 10
-0.0000991586046937
 20
0.0011815665150914
 10
-0.0012720334482862
 20
-0.0000527106540117
  0
LWPOLYLINE
  5
40
330
2F
100
AcDbEntity
  8
Level 59
  6
Continuous
 62
     2
370
    13
100
AcDbPolyline
 90
        5
 70
   128
 43
0.0
 10
-0.0012382689901424
 20
-0.0000623151341289
 10
-0.0001240379039885
 20
-0.001177211218604
 10
0.0010478252510147
 20
-0.0000623151341289
 10
-0.0001240379039885
 20
0.001110248115482
 10
-0.0012382689901424
 20
-0.0000623151341289
  0
LWPOLYLINE
  5
41
330
2F
100
AcDbEntity
  8
Level 59
  6
Continuous
 62
     2
370
    13
100
AcDbPolyline
 90
        5
 70
   128
 43
0.0
 10
-0.0012026548051392
 20
-0.0000726194036683
 10
-0.0001441352580339
 20
-0.0011317706839198
 10
0.0009691344950715
 20
-0.0000726194036683
 10
-0.0001441352580339
 20
0.0010413156529435
 10
-0.0012026548051392
 20
-0.0000726194036683
  0
LWPOLYLINE
  5
42
330
2F
100
AcDbEntity
  8
Level 59
  6
Continuous
 62
     2
370
    13
100
AcDbPolyline
 90
        5
 70
   128
 43
0.0
 10
-0.0011676421399578
 20
-0.0000824085207679
 10
-0.000162048707541
 20
-0.001088602252266
 10
0.0008955577257607
 20
-0.0000824085207679
 10
-0.000162048707541
 20
0.0009758299508652
 10
-0.0011676421399578
 20
-0.0000824085207679
  0
LWPOLYLINE
  5
43
330
2F
100
AcDbEntity
  8
Level 59
  6
Continuous
 62
     2
370
    13
100
AcDbPolyline
 90
        5
 70
   128
 43
0.0
 10
-0.0011332007812738
 20
-0.0000928879665517
 10
-0.0001778868984038
 20
-0.0010487722403638
 10
0.0008268391979736
 20
-0.0000928879665517
 10
-0.0001778868984038
 20
0.0009124384289071
 10
-0.0011332007812738
 20
-0.0000928879665517
  0
LWPOLYLINE
  5
44
330
2F
100
AcDbEntity
  8
Level 59
  6
Continuous
 62
     2
370
    13
100
AcDbPolyline
 90
        5
 70
   128
 43
0.0
 10
-0.0011004815820794
 20
-0.0001028437147129
 10
-0.0001929334391307
 20
-0.0010109335612049
 10
0.0007615564439833
 20
-0.0001028437147129
 10
-0.0001929334391307
 20
0.0008522165593432
 10
-0.0011004815820794
 20
-0.0001028437147129
  0
LWPOLYLINE
  5
45
330
2F
100
AcDbEntity
  8
Level 59
  6
Continuous
 62
     2
370
    13
100
AcDbPolyline
 90
        5
 70
   128
 43
0.0
 10
-0.0010693981749931
 20
-0.0001123014007995
 10
-0.0002072273934141
 20
-0.0009749870296335
 10
0.0006995379497667
 20
-0.0001123014007995
 10
-0.0002072273934141
 20
0.0007950056459243
 10
-0.0010693981749931
 20
-0.0001123014007995
  0
LWPOLYLINE
  5
46
330
2F
100
AcDbEntity
  8
Level 59
  6
Continuous
 62
     2
370
    13
100
AcDbPolyline
 90
        5
 70
   128
 43
0.0
 10
-0.0010375102999969
 20
-0.0001212863551744
 10
-0.0002184481337931
 20
-0.0009408377330852
 10
0.0006429789117101
 20
-0.0001212863551744
 10
-0.0002184481337931
 20
0.0007406552323984
 10
-0.0010375102999969
 20
-0.0001212863551744
  0
LWPOLYLINE
  5
47
330
2F
100
AcDbEntity
  8
Level 59
  6
Continuous
 62
     2
370
    13
100
AcDbPolyline
 90
        5
 70
   128
 43
0.0
 10
-0.0010060377819146
 20
-0.0001298220770898
 10
-0.0002279287087618
 20
-0.0009083959471419
 10
0.0005904269539478
 20
-0.0001298220770898
 10
-0.0002279287087618
 20
0.0006890224921414
 10
-0.0010060377819146
 20
-0.0001298220770898
  0
LWPOLYLINE
  5
48
330
2F
100
AcDbEntity
  8
Level 59
  6
Continuous
 62
     2
370
    13
100
AcDbPolyline
 90
        5
 70
   128
 43
0.0
 10
-0.0009749595629747
 20
-0.0001379308450575
 10
-0.0002357557908871
 20
-0.0008775762199774
 10
0.0005416818750574
 20
-0.0001379308450575
 10
-0.0002357557908871
 20
0.0006399713126011
 10
-0.0009749595629747
 20
-0.0001379308450575
  0
LWPOLYLINE
  5
49
330
2F
100
AcDbEntity
  8
Level 59
  6
Continuous
 62
     2
370
    13
100
AcDbPolyline
 90
        5
 70
   128
 43
0.0
 10
-0.0009442558061463
 20
-0.0001456343272195
 10
-0.0002420123905147
 20
-0.0008482973723564
 10
0.0004965535447249
 20
-0.0001456343272195
 10
-0.0002420123905147
 20
0.0005933726004822
 10
-0.0009442558061463
 20
-0.0001456343272195
  0
LWPOLYLINE
  5
4A
330
2F
100
AcDbEntity
  8
Level 59
  6
Continuous
 62
     2
370
    13
100
AcDbPolyline
 90
        5
 70
   128
 43
0.0
 10
-0.000912728659932
 20
-0.0001529526657919
 10
-0.0002455973998227
 20
-0.0008204824976348
 10
0.0004560402233957
 20
-0.0001529526657919
 10
-0.0002455973998227
 20
0.0005491039765618
 10
-0.000912728659932
 20
-0.0001529526657919
  0
LWPOLYLINE
  5
4B
330
2F
100
AcDbEntity
  8
Level 59
  6
Continuous
 62
     2
370
    13
100
AcDbPolyline
 90
        5
 70
   128
 43
0.0
 10
-0.0008757020783104
 20
-0.0001575450910978
 10
-0.0002419275490585
 20
-0.0007916983550523
 10
0.0004246284371472
 20
-0.0001575450910978
 10
-0.0002419275490585
 20
0.0005094088564714
 10
-0.0008757020783104
 20
-0.0001575450910978
  0
LWPOLYLINE
  5
4C
330
2F
100
AcDbEntity
  8
Level 59
  6
Continuous
 62
     2
370
    13
100
AcDbPolyline
 90
        5
 70
   128
 43
0.0
 10
-0.000836989043855
 20
-0.0001595477156896
 10
-0.0002349031037322
 20
-0.000761993469039
 10
0.000398324839015
 20
-0.0001595477156896
 10
-0.0002349031037322
 20
0.0004740583513901
 10
-0.000836989043855
 20
-0.0001595477156896
  0
LWPOLYLINE
  5
4D
330
2F
100
AcDbEntity
  8
Level 59
  6
Continuous
 62
     2
370
    13
100
AcDbPolyline
 90
        5
 70
   128
 43
0.0
 10
-0.0007990322580643
 20
-0.0001614502395704
 10
-0.0002270506912441
 20
-0.0007337739188817
 10
0.0003745158238473
 20
-0.0001614502395704
 10
-0.0002270506912441
 20
0.0004404754783777
 10
-0.0007990322580643
 20
-0.0001614502395704
  0
LWPOLYLINE
  5
4E
330
2F
100
AcDbEntity
  8
Level 59
  6
Continuous
 62
     2
370
    13
100
AcDbPolyline
 90
        5
 70
   128
 43
0.0
 10
-0.0007629734183781
 20
-0.0001632578508866
 10
-0.0002195910519728
 20
-0.0007069652394177
 10
0.0003518973357341
 20
-0.0001632578508866
 10
-0.0002195910519728
 20
0.0004085717337565
 10
-0.0007629734183781
 20
-0.0001632578508866
  0
LWPOLYLINE
  5
4F
330
2F
100
AcDbEntity
  8
Level 59
  6
Continuous
 62
     2
370
    13
100
AcDbPolyline
 90
        5
 70
   128
 43
0.0
 10
-0.0007287176122316
 20
-0.0001649748222298
 10
-0.0002125043488876
 20
-0.0006814969328898
 10
0.0003304098635825
 20
-0.0001649748222298
 10
-0.0002125043488876
 20
0.0003782631916257
 10
-0.0007287176122316
 20
-0.0001649748222298
  0
LWPOLYLINE
  5
50
330
2F
100
AcDbEntity
  8
Level 59
  6
Continuous
 62
     2
370
    13
100
AcDbPolyline
 90
        5
 70
   128
 43
0.0
 10
-0.000696174504837
 20
-0.0001666060365613
 10
-0.0002057719656971
 20
-0.0006573021637623
 10
0.000309996642964
 20
-0.0001666060365613
 10
-0.0002057719656971
 20
0.0003494698934904
 10
-0.000696174504837
 20
-0.0001666060365613
  0
LWPOLYLINE
  5
51
330
2F
100
AcDbEntity
  8
Level 59
  6
Continuous
 62
     2
370
    13
100
AcDbPolyline
 90
        5
 70
   128
 43
0.0
 10
-0.0006652586443676
 20
-0.0001681557664723
 10
-0.0001993762016663
 20
-0.0006343171483505
 10
0.0002906039613026
 20
-0.0001681557664723
 10
-0.0001993762016663
 20
0.0003221164586321
 10
-0.0006652586443676
 20
-0.0001681557664723
  0
LWPOLYLINE
  5
52
330
2F
100
AcDbEntity
  8
Level 59
  6
Continuous
 62
     2
370
    13
100
AcDbPolyline
 90
        5
 70
   128
 43
0.0
 10
-0.0006358885464031
 20
-0.0001696279793695
 10
-0.0001933002716146
 20
-0.0006124811548204
 10
0.0002721811578723
 20
-0.0001696279793695
 10
-0.0001933002716146
 20
0.0002961305581834
 10
-0.0006358885464031
 20
-0.0001696279793695
  0
LWPOLYLINE
  5
53
330
2F
100
AcDbEntity
  8
Level 59
  6
Continuous
 62
     2
370
    13
100
AcDbPolyline
 90
        5
 70
   128
 43
0.0
 10
-0.0006079869991148
 20
-0.0001710266426588
 10
-0.0001875280007324
 20
-0.0005917371135594
 10
0.000254679403058
 20
-0.0001710266426588
 10
-0.0001875280007324
 20
0.0002714441358683
 10
-0.0006079869991148
 20
-0.0001710266426588
  0
LWPOLYLINE
  5
54
330
2F
100
AcDbEntity
  8
Level 59
  6
Continuous
 62
     2
370
    13
100
AcDbPolyline
 90
        5
 70
   128
 43
0.0
 10
-0.0005814804528945
 20
-0.0001723554185613
 10
-0.0001820444349496
 20
-0.0005720303964355
 10
0.0002380526139104
 20
-0.0001723554185613
 10
-0.0001820444349496
 20
0.0002479918820765
 10
-0.0005814804528945
 20
-0.0001723554185613
  0
LWPOLYLINE
  5
55
330
2F
100
AcDbEntity
  8
Level 59
  6
Continuous
 62
     2
370
    13
100
AcDbPolyline
 90
        5
 70
   128
 43
0.0
 10
-0.0005562993255409
 20
-0.0001736176641133
 10
-0.000176834925382
 20
-0.0005533088167974
 10
0.0002222571489611
 20
-0.0001736176641133
 10
-0.000176834925382
 20
0.0002257121494186
 10
-0.0005562993255409
 20
-0.0001736176641133
  0
LWPOLYLINE
  5
56
330
2F
100
AcDbEntity
  8
Level 59
  6
Continuous
 62
     2
370
    13
100
AcDbPolyline
 90
        5
 70
   128
 43
0.0
 10
-0.0005323770867029
 20
-0.0001748167363507
 10
-0.0001718860438856
 20
-0.000535523239845
 10
0.0002072515030368
 20
-0.0001748167363507
 10
-0.0001718860438856
 20
0.0002045466475417
 10
-0.0005323770867029
 20
-0.0001748167363507
  0
LWPOLYLINE
  5
57
330
2F
100
AcDbEntity
  8
Level 59
  6
Continuous
 62
     2
370
    13
100
AcDbPolyline
 90
        5
 70
   128
 43
0.0
 10
-0.0005096508682513
 20
-0.0001759559923094
 10
-0.0001671843623157
 20
-0.0005186269722587
 10
0.0001929963072605
 20
-0.0001759559923094
 10
-0.0001671843623157
 20
0.0001844392223884
 10
-0.0005096508682513
 20
-0.0001759559923094
  0
LWPOLYLINE
  5
58
330
2F
100
AcDbEntity
  8
Level 59
  6
Continuous
 62
     2
370
    13
100
AcDbPolyline
 90
        5
 70
   128
 43
0.0
 10
-0.0004880611590928
 20
-0.0001770381786553
 10
-0.0001627179784537
 20
-0.0005025757621998
 10
0.0001794537186806
 20
-0.0001770381786553
 10
-0.0001627179784537
 20
0.0001653373821222
 10
-0.0004880611590928
 20
-0.0001770381786553
  0
LWPOLYLINE
  5
59
330
2F
100
AcDbEntity
  8
Level 59
  6
Continuous
 62
     2
370
    13
100
AcDbPolyline
 90
        5
 70
   128
 43
0.0
 10
-0.0004675508896145
 20
-0.0001780663472396
 10
-0.0001584746848964
 20
-0.0004873268837551
 10
0.0001665883358259
 20
-0.0001780663472396
 10
-0.0001584746848964
 20
0.0001471904660176
 10
-0.0004675508896145
 20
-0.0001780663472396
  0
LWPOLYLINE
  5
5A
330
2F
100
AcDbEntity
  8
Level 59
  6
Continuous
 62
     2
370
    13
100
AcDbPolyline
 90
        5
 70
   128
 43
0.0
 10
-0.0004480660420543
 20
-0.0001790429395429
 10
-0.0001544438001647
 20
-0.000472840662862
 10
0.0001543662831507
 20
-0.0001790429395429
 10
-0.0001544438001647
 20
0.0001299508651997
 10
-0.0004480660420543
 20
-0.0001790429395429
  0
LWPOLYLINE
  5
5B
330
2F
100
AcDbEntity
  8
Level 59
  6
Continuous
 62
     2
370
    13
100
AcDbPolyline
 90
        5
 70
   128
 43
0.0
 10
-0.0004295553453168
 20
-0.0001811508529924
 10
-0.0001506143375958
 20
-0.0004602584917752
 10
0.0001427552110355
 20
-0.0001811508529924
 10
-0.0001506143375958
 20
0.0001123932615131
 10
-0.0004295553453168
 20
-0.0001811508529924
  0
LWPOLYLINE
  5
5C
330
2F
100
AcDbEntity
  8
Level 59
  6
Continuous
 62
     2
370
    13
100
AcDbPolyline
 90
        5
 70
   128
 43
0.0
 10
-0.0004119702749717
 20
-0.000183153172399
 10
-0.000146976226081
 20
-0.0004483056123539
 10
0.0001317246009706
 20
-0.000183153172399
 10
-0.000146976226081
 20
0.0000957136753441
 10
-0.0004119702749717
 20
-0.000183153172399
  0
LWPOLYLINE
  5
5D
330
2F
100
AcDbEntity
  8
Level 59
  6
Continuous
 62
     2
370
    13
100
AcDbPolyline
 90
        5
 70
   128
 43
0.0
 10
-0.0003952644428844
 20
-0.0001850553910947
 10
-0.000143520310068
 20
-0.0004369502853481
 10
0.0001212457655568
 20
-0.0001850553910947
 10
-0.000143520310068
 20
0.0000798678548539
 10
-0.0003952644428844
 20
-0.0001850553910947
  0
LWPOLYLINE
  5
5E
330
2F
100
AcDbEntity
  8
Level 59
  6
Continuous
 62
     2
370
    13
100
AcDbPolyline
 90
        5
 70
   128
 43
0.0
 10
-0.0003793939024018
 20
-0.0001868626972259
 10
-0.0001402371288184
 20
-0.0004261629078036
 10
0.000111290627766
 20
-0.0001868626972259
 10
-0.0001402371288184
 20
0.0000648146000549
 10
-0.0003793939024018
 20
-0.0001868626972259
  0
LWPOLYLINE
  5
5F
330
2F
100
AcDbEntity
  8
Level 59
  6
Continuous
 62
     2
370
    13
100
AcDbPolyline
 90
        5
 70
   128
 43
0.0
 10
-0.0003643168431651
 20
-0.000188579668569
 10
-0.0001371181371499
 20
-0.0004159147923216
 10
0.0001018332468643
 20
-0.000188579668569
 10
-0.0001371181371499
 20
0.0000505139316996
 10
-0.0003643168431651
 20
-0.000188579668569
  0
LWPOLYLINE
  5
60
330
2F
100
AcDbEntity
  8
Level 59
  6
Continuous
 62
     2
370
    13
100
AcDbPolyline
 90
        5
 70
   128
 43
0.0
 10
-0.0003523523667103
 20
-0.0001937507248146
 10
-0.0001365135654772
 20
-0.0004097189245277
 10
0.0000904901272623
 20
-0.0001937507248146
 10
-0.0001365135654772
 20
0.0000333881649219
 10
-0.0003523523667103
 20
-0.0001937507248146
  0
LWPOLYLINE
  5
61
330
2F
100
AcDbEntity
  8
Level 59
  6
Continuous
 62
     2
370
    13
100
AcDbPolyline
 90
        5
 70
   128
 43
0.0
 10
-0.0003409860530411
 20
-0.0002033832819605
 10
-0.0001359392071291
 20
-0.0004085531174657
 10
0.0000797143467516
 20
-0.0002033832819605
 10
-0.0001359392071291
 20
0.0000123987548448
 10
-0.0003409860530411
 20
-0.0002033832819605
  0
LWPOLYLINE
  5
62
330
2F
100
AcDbEntity
  8
Level 59
  6
Continuous
 62
     2
370
    13
100
AcDbPolyline
 90
        5
 70
   128
 43
0.0
 10
-0.0003301879940182
 20
-0.0002125342570268
 10
-0.0001353935361796
 20
-0.0004074456007569
 10
0.0000694772179329
 20
-0.0002125342570268
 10
-0.0001353935361796
 20
-0.0000075411236916
 10
-0.0003301879940182
 20
-0.0002125342570268
  0
LWPOLYLINE
  5
63
330
2F
100
AcDbEntity
  8
Level 59
  6
Continuous
 62
     2
370
    13
100
AcDbPolyline
 90
        5
 70
   128
 43
0.0
 10
-0.0003187505722221
 20
-0.0002188674581134
 10
-0.0001336957914973
 20
-0.0004040333262124
 10
0.0000609314249092
 20
-0.0002188674581134
 10
-0.0001336957914973
 20
-0.0000241239661856
 10
-0.0003187505722221
 20
-0.0002188674581134
  0
LWPOLYLINE
  5
64
330
2F
100
AcDbEntity
  8
Level 59
  6
Continuous
 62
     2
370
    13
100
AcDbPolyline
 90
        5
 70
   128
 43
0.0
 10
-0.0003078850672932
 20
-0.0002248841822566
 10
-0.0001320828882715
 20
-0.0004007916501358
 10
0.0000528128910184
 20
-0.0002248841822566
 10
-0.0001320828882715
 20
-0.000039877620777
 10
-0.0003078850672932
 20
-0.0002248841822566
  0
LWPOLYLINE
  5
65
330
2F
100
AcDbEntity
  8
Level 59
  6
Continuous
 62
     2
370
    13
100
AcDbPolyline
 90
        5
 70
   128
 43
0.0
 10
-0.0002975627918332
 20
-0.0002305999938963
 10
-0.0001305508590958
 20
-0.0003977120273446
 10
0.0000451002533038
 20
-0.0002305999938963
 10
-0.0001305508590958
 20
-0.000054843592639
 10
-0.0002975627918332
 20
-0.0002305999938963
  0
LWPOLYLINE
  5
66
330
2F
100
AcDbEntity
  8
Level 59
  6
Continuous
 62
     2
370
    13
100
AcDbPolyline
 90
        5
 70
   128
 43
0.0
 10
-0.0002865773491623
 20
-0.0002372099978637
 10
-0.0001279161961729
 20
-0.0003959663686025
 10
0.0000389526047549
 20
-0.0002372099978637
 10
-0.0001279161961729
 20
-0.00007024140141
 10
-0.0002865773491623
 20
-0.0002372099978637
  0
LWPOLYLINE
  5
67
330
2F
100
AcDbEntity
  8
Level 59
  6
Continuous
 62
     2
370
    13
100
AcDbPolyline
 90
        5
 70
   128
 43
0.0
 10
-0.0002761412396617
 20
-0.0002434894863735
 10
-0.0001254130680257
 20
-0.0003943079927976
 10
0.0000331122775964
 20
-0.0002434894863735
 10
-0.0001254130680257
 20
-0.0000848692281868
 10
-0.0002761412396617
 20
-0.0002434894863735
  0
LWPOLYLINE
  5
68
330
2F
100
AcDbEntity
  8
Level 59
  6
Continuous
 62
     2
370
    13
100
AcDbPolyline
 90
        5
 70
   128
 43
0.0
 10
-0.0002685854670856
 20
-0.0002518149357585
 10
-0.0001253938413647
 20
-0.0003950926236762
 10
0.0000252052369763
 20
-0.0002518149357585
 10
-0.0001253938413647
 20
-0.0001011258278145
 10
-0.0002685854670856
 20
-0.0002518149357585
  0
LWPOLYLINE
  5
69
330
2F
100
AcDbEntity
  8
Level 59
  6
Continuous
 62
     2
370
    13
100
AcDbPolyline
 90
        5
 70
   128
 43
0.0
 10
-0.0002661247596666
 20
-0.0002585442670979
 10
-0.0001300927762687
 20
-0.0003946580401014
 10
0.0000129764702293
 20
-0.0002585442670979
 10
-0.0001300927762687
 20
-0.0001153895687734
 10
-0.0002661247596666
 20
-0.0002585442670979
  0
LWPOLYLINE
  5
6A
330
2F
100
AcDbEntity
  8
Level 59
  6
Continuous
 62
     2
370
    13
100
AcDbPolyline
 90
        5
 70
   128
 43
0.0
 10
-0.0002649662770468
 20
-0.0002637571337016
 10
-0.0001357359538559
 20
-0.0003930652790918
 10
0.0000001797540209
 20
-0.0002637571337016
 10
-0.0001357359538559
 20
-0.0001277599414045
 10
-0.0002649662770468
 20
-0.0002637571337016
  0
LWPOLYLINE
  5
6B
330
2F
100
AcDbEntity
  8
Level 59
  6
Continuous
 62
     2
370
    13
100
AcDbPolyline
 90
        5
 70
   128
 43
0.0
 10
-0.0002638657795952
 20
-0.0002687093722342
 10
-0.0001410968352304
 20
-0.0003915518662069
 10
-0.0000119769890438
 20
-0.0002687093722342
 10
-0.0001410968352304
 20
-0.0001395120090335
 10
-0.0002638657795952
 20
-0.0002687093722342
  0
LWPOLYLINE
  5
6C
330
2F
100
AcDbEntity
  8
Level 59
  6
Continuous
 62
     2
370
    13
100
AcDbPolyline
 90
        5
 70
   128
 43
0.0
 10
-0.0002616409802545
 20
-0.0002722339548937
 10
-0.0001450105288858
 20
-0.0003889342936491
 10
-0.0000223465681935
 20
-0.0002722339548937
 10
-0.0001450105288858
 20
-0.0001494964445937
 10
-0.0002616409802545
 20
-0.0002722339548937
  0
LWPOLYLINE
  5
6D
330
2F
100
AcDbEntity
  8
Level 59
  6
Continuous
 62
     2
370
    13
100
AcDbPolyline
 90
        5
 70
   128
 43
0.0
 10
-0.0002583480330819
 20
-0.0002755821405682
 10
-0.000147549363689
 20
-0.000386447645497
 10
-0.0000310184026611
 20
-0.0002755821405682
 10
-0.000147549363689
 20
-0.0001589815973388
 10
-0.0002583480330819
 20
-0.0002755821405682
  0
LWPOLYLINE
  5
6E
330
2F
100
AcDbEntity
  8
Level 59
  6
Continuous
 62
     2
370
    13
100
AcDbPolyline
 90
        5
 70
   128
 43
0.0
 10
-0.0002552198858606
 20
-0.0002787630848109
 10
-0.0001499612414927
 20
-0.0003840852076784
 10
-0.000039256569109
 20
-0.0002787630848109
 10
-0.0001499612414927
 20
-0.0001679924924467
 10
-0.0002552198858606
 20
-0.0002787630848109
  0
LWPOLYLINE
  5
6F
330
2F
100
AcDbEntity
  8
Level 59
  6
Continuous
 62
     2
370
    13
100
AcDbPolyline
 90
        5
 70
   128
 43
0.0
 10
-0.000252247993408
 20
-0.0002817850276192
 10
-0.0001522522659993
 20
-0.0003818408764916
 10
-0.0000470830408641
 20
-0.0002817850276192
 10
-0.0001522522659993
 20
-0.0001765529343547
 10
-0.000252247993408
 20
-0.0002817850276192
  0
LWPOLYLINE
  5
70
330
2F
100
AcDbEntity
  8
Level 59
  6
Continuous
 62
     2
370
    13
100
AcDbPolyline
 90
        5
 70
   128
 43
0.0
 10
-0.0002458870204777
 20
-0.0002870159001435
 10
-0.0001508908352914
 20
-0.0003820688497573
 10
-0.0000509802545243
 20
-0.0002870159001435
 10
-0.0001508908352914
 20
-0.0001870451979126
 10
-0.0002458870204777
 20
-0.0002870159001435
  0
LWPOLYLINE
  5
71
330
2F
100
AcDbEntity
  8
Level 59
  6
Continuous
 62
     2
370
    13
100
AcDbPolyline
 90
        5
 70
   128
 43
0.0
 10
-0.000236306039613
 20
-0.0002919852290414
 10
-0.0001460597552414
 20
-0.0003822855311747
 10
-0.0000511447492903
 20
-0.0002919852290414
 10
-0.0001460597552414
 20
-0.0001970128482925
 10
-0.000236306039613
 20
-0.0002919852290414
  0
LWPOLYLINE
  5
72
330
2F
100
AcDbEntity
  8
Level 59
  6
Continuous
 62
     2
370
    13
100
AcDbPolyline
 90
        5
 70
   128
 43
0.0
 10
-0.0002272041993469
 20
-0.0002955259865108
 10
-0.0001414700766013
 20
-0.0003813113803522
 10
-0.0000513010040589
 20
-0.0002955259865108
 10
-0.0001414700766013
 20
-0.0002053022858364
 10
-0.0002272041993469
 20
-0.0002955259865108
  0
LWPOLYLINE
  5
73
330
2F
100
AcDbEntity
  8
Level 59
  6
Continuous
 62
     2
370
    13
100
AcDbPolyline
 90
        5
 70
   128
 43
0.0
 10
-0.0002161989196445
 20
-0.0003012497329631
 10
-0.0001347514267403
 20
-0.0003827457502975
 10
-0.0000490908536027
 20
-0.0003012497329631
 10
-0.0001347514267403
 20
-0.0002155372783593
 10
-0.0002161989196445
 20
-0.0003012497329631
  0
LWPOLYLINE
  5
74
330
2F
100
AcDbEntity
  8
Level 59
  6
Continuous
 62
     2
370
    13
100
AcDbPolyline
 90
        5
 70
   128
 43
0.0
 10
-0.0001986681722463
 20
-0.000299607226783
 10
-0.0001212930692465
 20
-0.0003770284127323
 10
-0.0000399154637285
 20
-0.000299607226783
 10
-0.0001212930692465
 20
-0.000218180486465
 10
-0.0001986681722463
 20
-0.000299607226783
  0
LWPOLYLINE
  5
75
330
2F
100
AcDbEntity
  8
Level 59
  6
Continuous
 62
     2
370
    13
100
AcDbPolyline
 90
        5
 70
   128
 43
0.0
 10
-0.0001772966704305
 20
-0.0002968669698172
 10
-0.0001037903988769
 20
-0.0003704168828395
 10
-0.0000264815210423
 20
-0.0002968669698172
 10
-0.0001037903988769
 20
-0.0002195113986633
 10
-0.0001772966704305
 20
-0.0002968669698172
  0
LWPOLYLINE
  5
76
330
2F
100
AcDbEntity
  8
Level 59
  6
Continuous
 62
     2
370
    13
100
AcDbPolyline
 90
        5
 70
   128
 43
0.0
 10
-0.0001558143864252
 20
-0.000294263740959
 10
-0.0000859834589678
 20
-0.0003641361735893
 10
-0.0000125400555436
 20
-0.000294263740959
 10
-0.0000859834589678
 20
-0.0002207757805109
 10
-0.0001558143864252
 20
-0.000294263740959
  0
LWPOLYLINE
  5
77
330
2F
100
AcDbEntity
  8
Level 59
  6
Continuous
 62
     2
370
    13
100
AcDbPolyline
 90
        5
 70
   128
 43
0.0
 10
-0.0001318683431501
 20
-0.000291790520951
 10
-0.0000655290383616
 20
-0.0003581694998017
 10
0.0000042423780024
 20
-0.000291790520951
 10
-0.0000655290383616
 20
-0.0002219769890438
 10
-0.0001318683431501
 20
-0.000291790520951
  0
LWPOLYLINE
  5
78
330
2F
100
AcDbEntity
  8
Level 59
  6
Continuous
 62
     2
370
    13
100
AcDbPolyline
 90
        5
 70
   128
 43
0.0
 10
-0.0001079403057953
 20
-0.0002894409009064
 10
-0.0000449180578018
 20
-0.0003525009918516
 10
0.0000213647877439
 20
-0.0002894409009064
 10
-0.0000449180578018
 20
-0.0002231180761132
 10
-0.0001079403057953
 20
-0.0002894409009064
  0
LWPOLYLINE
  5
79
330
2F
100
AcDbEntity
  8
Level 59
  6
Continuous
 62
     2
370
    13
100
AcDbPolyline
 90
        4
 70
   128
 43
0.0
 10
0.0039081643116553
 20
0.0018556001464889
 10
0.0003231055635243
 20
0.0000147999511704
 10
0.0039789220862454
 20
-0.0019204000976593
 10
0.0039081643116553
 20
0.0018556001464889
  0
LWPOLYLINE
  5
7A
330
2F
100
AcDbEntity
  8
Level 59
  6
Continuous
 62
     2
370
    13
100
AcDbPolyline
 90
        4
 70
   128
 43
0.0
 10
0.0038114621417891
 20
0.0017871602526933
 10
0.0004056563005465
 20
0.0000383999145482
 10
0.0038786819055758
 20
-0.0018000399792475
 10
0.0038114621417891
 20
0.0017871602526933
  0
LWPOLYLINE
  5
7B
330
2F
100
AcDbEntity
  8
Level 59
  6
Continuous
 62
     2
370
    13
100
AcDbPolyline
 90
        4
 70
   128
 43
0.0
 10
0.0037207742545856
 20
0.0017221420941801
 10
0.0004852586443679
 20
0.0000608200323495
 10
0.0037846330149236
 20
-0.0016856981109042
 10
0.0037207742545856
 20
0.0017221420941801
  0
LWPOLYLINE
  5
7C
330
2F
100
AcDbEntity
  8
Level 59
  6
Continuous
 62
     2
370
    13
100
AcDbPolyline
 90
        4
 70
   128
 43
0.0
 10
0.0036346208075198
 20
0.0016591949217201
 10
0.0005608810693686
 20
0.0000809390545365
 10
0.0036952867213965
 20
-0.0015782531205176
 10
0.0036346208075198
 20
0.0016591949217201
  0
LWPOLYLINE
  5
7D
330
2F
100
AcDbEntity
  8
Level 59
  6
Continuous
 62
     2
370
    13
100
AcDbPolyline
 90
        4
 70
   128
 43
0.0
 10
0.0035539542832729
 20
0.0015993951231421
 10
0.0006339014862516
 20
0.0001000521866512
 10
0.003611586962493
 20
-0.001476180608539
 10
0.0035539542832729
 20
0.0015993951231421
  0
LWPOLYLINE
  5
7E
330
2F
100
AcDbEntity
  8
Level 59
  6
Continuous
 62
     2
370
    13
100
AcDbPolyline
 90
        4
 70
   128
 43
0.0
 10
0.0034773210852384
 20
0.0015425852229377
 10
0.0007032709738458
 20
0.0001182094790491
 10
0.0035320722067935
 20
-0.0013792117069003
 10
0.0034773210852384
 20
0.0015425852229377
  0
LWPOLYLINE
  5
7F
330
2F
100
AcDbEntity
  8
Level 59
  6
Continuous
 62
     2
370
    13
100
AcDbPolyline
 90
        4
 70
   128
 43
0.0
 10
0.0034045194860685
 20
0.0014886159855952
 10
0.0007691720328381
 20
0.000135459150975
 10
0.0034565330973236
 20
-0.0012870909756768
 10
0.0034045194860685
 20
0.0014886159855952
  0
LWPOLYLINE
  5
80
330
2F
100
AcDbEntity
  8
Level 59
  6
Continuous
 62
     2
370
    13
100
AcDbPolyline
 90
        4
 70
   128
 43
0.0
 10
0.003335358134709
 20
0.0014373451948607
 10
0.0008317780083622
 20
0.0001518460646383
 10
0.0033847709585866
 20
-0.0011995764030885
 10
0.003335358134709
 20
0.0014373451948607
  0
LWPOLYLINE
  5
81
330
2F
100
AcDbEntity
  8
Level 59
  6
Continuous
 62
     2
370
    13
100
AcDbPolyline
 90
        4
 70
   128
 43
0.0
 10
0.0032696548356579
 20
0.0013886379589221
 10
0.0008912537003693
 20
0.000167413861507
 10
0.0033165968810086
 20
-0.0011164375743888
 10
0.0032696548356579
 20
0.0013886379589221
  0
LWPOLYLINE
  5
82
330
2F
100
AcDbEntity
  8
Level 59
  6
Continuous
 62
     2
370
    13
100
AcDbPolyline
 90
        4
 70
   128
 43
0.0
 10
0.0032084160893582
 20
0.0013411859492782
 10
0.0009489349040194
 20
0.0001810232856228
 10
0.003253010956145
 20
-0.0010386358226264
 10
0.0032084160893582
 20
0.0013411859492782
  0
LWPOLYLINE
  5
83
330
2F
100
AcDbEntity
  8
Level 59
  6
Continuous
 62
     2
370
    13
100
AcDbPolyline
 90
        4
 70
   128
 43
0.0
 10
0.0031502392651144
 20
0.0012961067537461
 10
0.0010037321085238
 20
0.0001939521469772
 10
0.0031926041444138
 20
-0.0009647239600817
 10
0.0031502392651144
 20
0.0012961067537461
  0
LWPOLYLINE
  5
84
330
2F
100
AcDbEntity
  8
Level 59
  6
Continuous
 62
     2
370
    13
100
AcDbPolyline
 90
        4
 70
   128
 43
0.0
 10
0.0030949711600086
 20
0.0012532813501388
 10
0.0010557893612477
 20
0.0002062346263009
 10
0.0031352177495652
 20
-0.0008945078890348
 10
0.0030949711600086
 20
0.0012532813501388
  0
LWPOLYLINE
  5
85
330
2F
100
AcDbEntity
  8
Level 59
  6
Continuous
 62
     2
370
    13
100
AcDbPolyline
 90
        4
 70
   128
 43
0.0
 10
0.0030424665059359
 20
0.0012125974303415
 10
0.0011052436902982
 20
0.0002179027680288
 10
0.0030807007049778
 20
-0.0008278023621326
 10
0.0030424665059359
 20
0.0012125974303415
  0
LWPOLYLINE
  5
86
330
2F
100
AcDbEntity
  8
Level 59
  6
Continuous
 62
     2
370
    13
100
AcDbPolyline
 90
        4
 70
   128
 43
0.0
 10
0.0029925870540485
 20
0.0011727674184392
 10
0.0011522254097112
 20
0.0002278075502793
 10
0.0030289095736566
 20
-0.0007656123538926
 10
0.0029925870540485
 20
0.0011727674184392
  0
LWPOLYLINE
  5
87
330
2F
100
AcDbEntity
  8
Level 59
  6
Continuous
 62
     2
370
    13
100
AcDbPolyline
 90
        4
 70
   128
 43
0.0
 10
0.0029463808099614
 20
0.0011349290444654
 10
0.0011980373546557
 20
0.000237217322306
 10
0.0029808871730705
 20
-0.0007065318765832
 10
0.0029463808099614
 20
0.0011349290444654
  0
LWPOLYLINE
  5
88
330
2F
100
AcDbEntity
  8
Level 59
  6
Continuous
 62
     2
370
    13
100
AcDbPolyline
 90
        4
 70
   128
 43
0.0
 10
0.0029036643574329
 20
0.0010978026673177
 10
0.0012427378154852
 20
0.0002449763481551
 10
0.0029364452040163
 20
-0.0006515851313822
 10
0.0029036643574329
 20
0.0010978026673177
  0
LWPOLYLINE
  5
89
330
2F
100
AcDbEntity
  8
Level 59
  6
Continuous
 62
     2
370
    13
100
AcDbPolyline
 90
        4
 70
   128
 43
0.0
 10
0.0028642628254037
 20
0.0010613525803399
 10
0.001286382641072
 20
0.0002511676381726
 10
0.0028954048280284
 20
-0.0006005658131657
 10
0.0028642628254037
 20
0.0010613525803399
  0
LWPOLYLINE
  5
8A
330
2F
100
AcDbEntity
  8
Level 59
  6
Continuous
 62
     2
370
    13
100
AcDbPolyline
 90
        4
 70
   128
 43
0.0
 10
0.0028268315683462
 20
0.0010255449079867
 10
0.0013278453932313
 20
0.0002558693197424
 10
0.0028564162114324
 20
-0.0005532773827327
 10
0.0028268315683462
 20
0.0010255449079867
  0
LWPOLYLINE
  5
8B
330
2F
100
AcDbEntity
  8
Level 59
  6
Continuous
 62
     2
370
    13
100
AcDbPolyline
 90
        4
 70
   128
 43
0.0
 10
0.0027912717062898
 20
0.0009915277565844
 10
0.0013672350230417
 20
0.0002603357036042
 10
0.0028193771172216
 20
-0.0005083535264138
 10
0.0027912717062898
 20
0.0009915277565844
  0
LWPOLYLINE
  5
8C
330
2F
100
AcDbEntity
  8
Level 59
  6
Continuous
 62
     2
370
    13
100
AcDbPolyline
 90
        4
 70
   128
 43
0.0
 10
0.0027586690878018
 20
0.0009592114017152
 10
0.0014058342234566
 20
0.0002645789971618
 10
0.0027853694265575
 20
-0.0004656758323924
 10
0.0027586690878018
 20
0.0009592114017152
  0
LWPOLYLINE
  5
8D
330
2F
100
AcDbEntity
  8
Level 59
  6
Continuous
 62
     2
370
    13
100
AcDbPolyline
 90
        4
 70
   128
 43
0.0
 10
0.00272769676809
 20
0.0009285106967376
 10
0.0014425034333323
 20
0.0002686101870785
 10
0.0027530619220558
 20
-0.0004251319925536
 10
0.00272769676809
 20
0.0009285106967376
  0
LWPOLYLINE
  5
8E
330
2F
100
AcDbEntity
  8
Level 59
  6
Continuous
 62
     2
370
    13
100
AcDbPolyline
 90
        4
 70
   128
 43
0.0
 10
0.0026982729575489
 20
0.0008993450727867
 10
0.001477339396344
 20
0.0002724396496475
 10
0.0027223697622609
 20
-0.0003866154972991
 10
0.0026982729575489
 20
0.0008993450727867
  0
LWPOLYLINE
  5
8F
330
2F
100
AcDbEntity
  8
Level 59
  6
Continuous
 62
     2
370
    13
100
AcDbPolyline
 90
        4
 70
   128
 43
0.0
 10
0.0026703204443495
 20
0.0008716379284036
 10
0.0015104333628347
 20
0.0002760777611621
 10
0.0026932123783077
 20
-0.0003500247199927
 10
0.0026703204443495
 20
0.0008716379284036
  0
LWPOLYLINE
  5
90
330
2F
100
AcDbEntity
  8
Level 59
  6
Continuous
 62
     2
370
    13
100
AcDbPolyline
 90
        4
 70
   128
 43
0.0
 10
0.0026437653736991
 20
0.0008453160191656
 10
0.0015418726157414
 20
0.0002795339823602
 10
0.0026655128635519
 20
-0.0003152635273294
 10
0.0026437653736991
 20
0.0008453160191656
  0
LWPOLYLINE
  5
91
330
2F
100
AcDbEntity
  8
Level 59
  6
Continuous
 62
     2
370
    13
100
AcDbPolyline
 90
        4
 70
   128
 43
0.0
 10
0.0026185381633963
 20
0.0008191302224799
 10
0.0015717401654105
 20
0.0002816373180333
 10
0.0026391982787562
 20
-0.000283420209357
 10
0.0026185381633963
 20
0.0008191302224799
  0
LWPOLYLINE
  5
92
330
2F
100
AcDbEntity
  8
Level 59
  6
Continuous
 62
     2
370
    13
100
AcDbPolyline
 90
        4
 70
   128
 43
0.0
 10
0.0025945722830898
 20
0.0007942536698508
 10
0.0016001141392256
 20
0.0002836353648488
 10
0.0026141993469041
 20
-0.0002531693472091
 10
0.0025945722830898
 20
0.0007942536698508
  0
LWPOLYLINE
  5
93
330
2F
100
AcDbEntity
  8
Level 59
  6
Continuous
 62
     2
370
    13
100
AcDbPolyline
 90
        4
 70
   128
 43
0.0
 10
0.0025729840998567
 20
0.0007706210516678
 10
0.0016282488479264
 20
0.0002855336161381
 10
0.0025916296884062
 20
-0.0002244309823909
 10
0.0025729840998567
 20
0.0007706210516678
  0
LWPOLYLINE
  5
94
330
2F
100
AcDbEntity
  8
Level 59
  6
Continuous
 62
     2
370
    13
100
AcDbPolyline
 90
        4
 70
   128
 43
0.0
 10
0.0025524753563036
 20
0.0007481701101718
 10
0.0016549766533403
 20
0.0002873369548632
 10
0.0025701886043887
 20
-0.0001971294289986
 10
0.0025524753563036
 20
0.0007481701101718
  0
LWPOLYLINE
  5
95
330
2F
100
AcDbEntity
  8
Level 59
  6
Continuous
 62
     2
370
    13
100
AcDbPolyline
 90
        4
 70
   128
 43
0.0
 10
0.0025329920346692
 20
0.0007256614886928
 10
0.0016803680532245
 20
0.0002878701132237
 10
0.0025498196356092
 20
-0.0001723728141118
 10
0.0025329920346692
 20
0.0007256614886928
  0
LWPOLYLINE
  5
96
330
2F
100
AcDbEntity
  8
Level 59
  6
Continuous
 62
     2
370
    13
100
AcDbPolyline
 90
        4
 70
   128
 43
0.0
 10
0.0025156620990633
 20
0.0007030985442671
 10
0.0017056694235056
 20
0.0002871965697195
 10
0.002531648304697
 20
-0.0001500341807306
 10
0.0025156620990633
 20
0.0007030985442671
  0
LWPOLYLINE
  5
97
330
2F
100
AcDbEntity
  8
Level 59
  6
Continuous
 62
     2
370
    13
100
AcDbPolyline
 90
        4
 70
   128
 43
0.0
 10
0.0024991985839413
 20
0.0006816635639515
 10
0.0017297054963835
 20
0.0002865565965758
 10
0.0025143855098117
 20
-0.0001288125247964
 10
0.0024991985839413
 20
0.0006816635639515
  0
LWPOLYLINE
  5
98
330
2F
100
AcDbEntity
  8
Level 59
  6
Continuous
 62
     2
370
    13
100
AcDbPolyline
 90
        4
 70
   128
 43
0.0
 10
0.00248355815302
 20
0.0006613003936888
 10
0.0017525397503588
 20
0.000285948667867
 10
0.0024979857783747
 20
-0.0001086519974365
 10
0.00248355815302
 20
0.0006613003936888
  0
LWPOLYLINE
  5
99
330
2F
100
AcDbEntity
  8
Level 59
  6
Continuous
 62
     2
370
    13
100
AcDbPolyline
 90
        4
 70
   128
 43
0.0
 10
0.0024698791467026
 20
0.0006407754753258
 10
0.0017754118472856
 20
0.0002841911069064
 10
0.0024835853144934
 20
-0.000090679342021
 10
0.0024698791467026
 20
0.0006407754753258
  0
LWPOLYLINE
  5
9A
330
2F
100
AcDbEntity
  8
Level 59
  6
Continuous
 62
     2
370
    13
100
AcDbPolyline
 90
        4
 70
   128
 43
0.0
 10
0.0024568840601825
 20
0.0006212765892514
 10
0.001797140110477
 20
0.0002825214392529
 10
0.0024699050874356
 20
-0.0000736054567095
 10
0.0024568840601825
 20
0.0006212765892514
  0
LWPOLYLINE
  5
9B
330
2F
100
AcDbEntity
  8
Level 59
  6
Continuous
 62
     2
370
    13
100
AcDbPolyline
 90
        4
 70
   128
 43
0.0
 10
0.0024445387127294
 20
0.0006027527695547
 10
0.0018177819147313
 20
0.0002809353923154
 10
0.0024569087801754
 20
-0.0000573851741081
 10
0.0024445387127294
 20
0.0006027527695547
  0
LWPOLYLINE
  5
9C
330
2F
100
AcDbEntity
  8
Level 59
  6
Continuous
 62
     2
370
    13
100
AcDbPolyline
 90
        4
 70
   128
 43
0.0
 10
0.0024328107547227
 20
0.0005851551866207
 10
0.0018373918881803
 20
0.0002794286935026
 10
0.0024445622119817
 20
-0.0000419757683034
 10
0.0024328107547227
 20
0.0005851551866207
  0
LWPOLYLINE
  5
9D
330
2F
100
AcDbEntity
  8
Level 59
  6
Continuous
 62
     2
370
    13
100
AcDbPolyline
 90
        4
 70
   128
 43
0.0
 10
0.0024216690572834
 20
0.0005684374523148
 10
0.0018560213019198
 20
0.0002779973754081
 10
0.0024328330332346
 20
-0.0000273369548631
 10
0.0024216690572834
 20
0.0005684374523148
  0
LWPOLYLINE
  5
9E
330
2F
100
AcDbEntity
  8
Level 59
  6
Continuous
 62
     2
370
    13
100
AcDbPolyline
 90
        4
 70
   128
 43
0.0
 10
0.0024122638630331
 20
0.0005525556199836
 10
0.0018748985259561
 20
0.0002766374706259
 10
0.0024228696554463
 20
-0.00001342997528
 10
0.0024122638630331
 20
0.0005525556199836
  0
LWPOLYLINE
  5
9F
330
2F
100
AcDbEntity
  8
Level 59
  6
Continuous
 62
     2
370
    13
100
AcDbPolyline
 90
        4
 70
   128
 43
0.0
 10
0.0024033289590137
 20
0.0005374678792688
 10
0.0018928318124943
 20
0.0002753456221197
 10
0.0024134043397321
 20
-0.0000002185125278
 10
0.0024033289590137
 20
0.0005374678792688
  0
LWPOLYLINE
  5
A0
330
2F
100
AcDbEntity
  8
Level 59
  6
Continuous
 62
     2
370
    13
100
AcDbPolyline
 90
        4
 70
   128
 43
0.0
 10
0.0023971993163854
 20
0.0005231345561083
 10
0.0019122269356367
 20
0.0002741184728537
 10
0.0024067708365124
 20
0.0000123325296792
 10
0.0023971993163854
 20
0.0005231345561083
  0
LWPOLYLINE
  5
A1
330
2F
100
AcDbEntity
  8
Level 59
  6
Continuous
 62
     2
370
    13
100
AcDbPolyline
 90
        4
 70
   128
 43
0.0
 10
0.0023913760795924
 20
0.0005083379619739
 10
0.0019306524857329
 20
0.0002717725150304
 10
0.0024004690694908
 20
0.0000230759605701
 10
0.0023913760795924
 20
0.0005083379619739
  0
LWPOLYLINE
  5
A2
330
2F
100
AcDbEntity
  8
Level 59
  6
Continuous
 62
     2
370
    13
100
AcDbPolyline
 90
        4
 70
   128
 43
0.0
 10
0.0023858439893796
 20
0.0004931009857478
 10
0.0019481566820279
 20
0.000268363902707
 10
0.002394482558672
 20
0.0000321021149327
 10
0.0023858439893796
 20
0.0004931009857478
  0
LWPOLYLINE
  5
A3
330
2F
100
AcDbEntity
  8
Level 59
  6
Continuous
 62
     2
370
    13
100
AcDbPolyline
 90
        4
 70
   128
 43
0.0
 10
0.0023853056428724
 20
0.0004774459059419
 10
0.0019695028534808
 20
0.0002639457380902
 10
0.0023935123752558
 20
0.0000394970549639
 10
0.0023853056428724
 20
0.0004774459059419
  0
LWPOLYLINE
  5
A4
330
2F
100
AcDbEntity
  8
Level 59
  6
Continuous
 62
     2
370
    13
100
AcDbPolyline
 90
        4
 70
   128
 43
0.0
 10
0.002387152928251
 20
0.0004625736259041
 10
0.0019921402630696
 20
0.0002597485274819
 10
0.0023949494918669
 20
0.00004652211066
 10
0.002387152928251
 20
0.0004625736259041
  0
LWPOLYLINE
  5
A5
330
2F
100
AcDbEntity
  8
Level 59
  6
Continuous
 62
     2
370
    13
100
AcDbPolyline
 90
        4
 70
   128
 43
0.0
 10
0.0023924457533495
 20
0.0004496249275185
 10
0.0020171837519456
 20
0.0002569411297952
 10
0.0023998525955994
 20
0.0000543760490738
 10
0.0023924457533495
 20
0.0004496249275185
  0
LWPOLYLINE
  5
A6
330
2F
100
AcDbEntity
  8
Level 59
  6
Continuous
 62
     2
370
    13
100
AcDbPolyline
 90
        4
 70
   128
 43
0.0
 10
0.0023986532181769
 20
0.0004373238319041
 10
0.0020421543015839
 20
0.0002542741172521
 10
0.0024056898709069
 20
0.0000618372142704
 10
0.0023986532181769
 20
0.0004373238319041
  0
LWPOLYLINE
  5
A7
330
2F
100
AcDbEntity
  8
Level 59
  6
Continuous
 62
     2
370
    13
100
AcDbPolyline
 90
        4
 70
   128
 43
0.0
 10
0.0024057295449692
 20
0.0004268175298318
 10
0.0020670555742059
 20
0.0002529203161717
 10
0.0024124143192847
 20
0.0000701052888576
 10
0.0024057295449692
 20
0.0004268175298318
  0
LWPOLYLINE
  5
A8
330
2F
100
AcDbEntity
  8
Level 59
  6
Continuous
 62
     2
370
    13
100
AcDbPolyline
 90
        4
 70
   128
 43
0.0
 10
0.0024148106326489
 20
0.0004191967528306
 10
0.0020930704672384
 20
0.0002539942625202
 10
0.0024211612292857
 20
0.0000803201391644
 10
0.0024148106326489
 20
0.0004191967528306
  0
LWPOLYLINE
  5
A9
330
2F
100
AcDbEntity
  8
Level 59
  6
Continuous
 62
     2
370
    13
100
AcDbPolyline
 90
        4
 70
   128
 43
0.0
 10
0.0024246171452987
 20
0.0004119568468276
 10
0.0021189638966034
 20
0.0002550144962919
 10
0.0024306500442518
 20
0.0000900241096224
 10
0.0024246171452987
 20
0.0004119568468276
  0
LWPOLYLINE
  5
AA
330
2F
100
AcDbEntity
  8
Level 59
  6
Continuous
 62
     2
370
    13
100
AcDbPolyline
 90
        4
 70
   128
 43
0.0
 10
0.0024351124607076
 20
0.0004062590411084
 10
0.0021447419660026
 20
0.0002571639149144
 10
0.0024408438367871
 20
0.0001004229865413
 10
0.0024351124607076
 20
0.0004062590411084
  0
LWPOLYLINE
  5
AB
330
2F
100
AcDbEntity
  8
Level 59
  6
Continuous
 62
     2
370
    13
100
AcDbPolyline
 90
        4
 70
   128
 43
0.0
 10
0.0024450831629385
 20
0.0004008459730827
 10
0.0021692312387464
 20
0.0002592056031984
 10
0.002450527970214
 20
0.0001103018280587
 10
0.0024450831629385
 20
0.0004008459730827
  0
LWPOLYLINE
  5
AC
330
2F
100
AcDbEntity
  8
Level 59
  6
Continuous
 62
     2
370
    13
100
AcDbPolyline
 90
        4
 70
   128
 43
0.0
 10
0.0024545551927245
 20
0.0003968837549974
 10
0.002192495803705
 20
0.0002623252052369
 10
0.0024597277748957
 20
0.0001208667256691
 10
0.0024545551927245
 20
0.0003968837549974
  0
LWPOLYLINE
  5
AD
330
2F
100
AcDbEntity
  8
Level 59
  6
Continuous
 62
     2
370
    13
100
AcDbPolyline
 90
        4
 70
   128
 43
0.0
 10
0.0024647331156349
 20
0.0003931196020386
 10
0.0022157765434738
 20
0.0002652888576922
 10
0.0024696469008454
 20
0.0001309033478805
 10
0.0024647331156349
 20
0.0003931196020386
  0
LWPOLYLINE
  5
AE
330
2F
100
AcDbEntity
  8
Level 59
  6
Continuous
 62
     2
370
    13
100
AcDbPolyline
 90
        4
 70
   128
 43
0.0
 10
0.0024744019898071
 20
0.0003895437482833
 10
0.0022378933072911
 20
0.0002681044953764
 10
0.0024790701010163
 20
0.0001404382457961
 10
0.0024744019898071
 20
0.0003895437482833
  0
LWPOLYLINE
  5
AF
330
2F
100
AcDbEntity
  8
Level 59
  6
Continuous
 62
     2
370
    13
100
AcDbPolyline
 90
        4
 70
   128
 43
0.0
 10
0.0024835874507891
 20
0.0003861464278084
 10
0.0022589040803249
 20
0.0002707791375469
 10
0.002488022095401
 20
0.0001494964445936
 10
0.0024835874507891
 20
0.0003861464278084
  0
LWPOLYLINE
  5
B0
330
2F
100
AcDbEntity
  8
Level 59
  6
Continuous
 62
     2
370
    13
100
AcDbPolyline
 90
        4
 70
   128
 43
0.0
 10
0.0024923136082036
 20
0.0003829190954313
 10
0.0022788644062626
 20
0.0002733201086459
 10
0.0024965266884366
 20
0.0001581017487106
 10
0.0024923136082036
 20
0.0003829190954313
  0
LWPOLYLINE
  5
B1
330
2F
100
AcDbEntity
  8
Level 59
  6
Continuous
 62
     2
370
    13
100
AcDbPolyline
 90
        4
 70
   128
 43
0.0
 10
0.0025029621265299
 20
0.0003798532059694
 10
0.0023001852473526
 20
0.0002757341227454
 10
0.0025069646290477
 20
0.0001662767418439
 10
0.0025029621265299
 20
0.0003798532059694
  0
LWPOLYLINE
  5
B2
330
2F
100
AcDbEntity
  8
Level 59
  6
Continuous
 62
     2
370
    13
100
AcDbPolyline
 90
        4
 70
   128
 43
0.0
 10
0.0025130780968658
 20
0.0003769405194251
 10
0.0023204400769068
 20
0.0002780272835475
 10
0.0025168803979614
 20
0.0001740427869503
 10
0.0025130780968658
 20
0.0003769405194251
  0
LWPOLYLINE
  5
B3
330
2F
100
AcDbEntity
  8
Level 59
  6
Continuous
 62
     2
370
    13
100
AcDbPolyline
 90
        4
 70
   128
 43
0.0
 10
0.0025226883754999
 20
0.0003741734061709
 10
0.0023396823023164
 20
0.0002802059999389
 10
0.0025263005462816
 20
0.0001814206366161
 10
0.0025226883754999
 20
0.0003741734061709
  0
LWPOLYLINE
  5
B4
330
2F
100
AcDbEntity
  8
Level 59
  6
Continuous
 62
     2
370
    13
100
AcDbPolyline
 90
        4
 70
   128
 43
0.0
 10
0.0025318179876095
 20
0.0003715448469497
 10
0.0023579622791224
 20
0.0002822757652516
 10
0.0025352497940001
 20
0.0001884295175023
 10
0.0025318179876095
 20
0.0003715448469497
  0
LWPOLYLINE
  5
B5
330
2F
100
AcDbEntity
  8
Level 59
  6
Continuous
 62
     2
370
    13
100
AcDbPolyline
 90
        4
 70
   128
 43
0.0
 10
0.0025404913480027
 20
0.0003690475173193
 10
0.0023753282265694
 20
0.0002842420728171
 10
0.0025437513351848
 20
0.0001950880458998
 10
0.0025404913480027
 20
0.0003690475173193
  0
LWPOLYLINE
  5
B6
330
2F
100
AcDbEntity
  8
Level 59
  6
Continuous
 62
     2
370
    13
100
AcDbPolyline
 90
        4
 70
   128
 43
0.0
 10
-0.0039223584704121
 20
0.0018556001464889
 10
-0.0003372997222815
 20
0.0000147999511704
 10
-0.0039931162450026
 20
-0.0019204000976593
 10
-0.0039223584704121
 20
0.0018556001464889
  0
LWPOLYLINE
  5
B7
330
2F
100
AcDbEntity
  8
Level 59
  6
Continuous
 62
     2
370
    13
100
AcDbPolyline
 90
        4
 70
   128
 43
0.0
 10
-0.003810325327311
 20
0.0017907000946074
 10
-0.0004045194860682
 20
0.0000419400616474
 10
-0.0038775453962828
 20
-0.0017965001373333
 10
-0.003810325327311
 20
0.0017907000946074
  0
LWPOLYLINE
  5
B8
330
2F
100
AcDbEntity
  8
Level 59
  6
Continuous
 62
     2
370
    13
100
AcDbPolyline
 90
        4
 70
   128
 43
0.0
 10
-0.0037038938566239
 20
0.0017290450758385
 10
-0.0004683782464062
 20
0.000067723014008
 10
-0.003767752922147
 20
-0.001678795129246
 10
-0.0037038938566239
 20
0.0017290450758385
  0
LWPOLYLINE
  5
B9
330
2F
100
AcDbEntity
  8
Level 59
  6
Continuous
 62
     2
370
    13
100
AcDbPolyline
 90
        4
 70
   128
 43
0.0
 10
-0.0036027838984341
 20
0.0016704727317117
 10
-0.0005290441602832
 20
0.0000922168645283
 10
-0.0036634501174962
 20
-0.0015669753105259
 10
-0.0036027838984341
 20
0.0016704727317117
  0
LWPOLYLINE
  5
BA
330
2F
100
AcDbEntity
  8
Level 59
  6
Continuous
 62
     2
370
    13
100
AcDbPolyline
 90
        4
 70
   128
 43
0.0
 10
-0.0035067296365244
 20
0.0016136490981781
 10
-0.0005866768395031
 20
0.0001143061616871
 10
-0.0035643623157445
 20
-0.0014619266335033
 10
-0.0035067296365244
 20
0.0016136490981781
  0
LWPOLYLINE
  5
BB
330
2F
100
AcDbEntity
  8
Level 59
  6
Continuous
 62
     2
370
    13
100
AcDbPolyline
 90
        4
 70
   128
 43
0.0
 10
-0.0034154780724508
 20
0.0015573067415388
 10
-0.0006414279610582
 20
0.0001329309976501
 10
-0.0034702291940059
 20
-0.0013644901882992
 10
-0.0034154780724508
 20
0.0015573067415388
  0
LWPOLYLINE
  5
BC
330
2F
100
AcDbEntity
  8
Level 59
  6
Continuous
 62
     2
370
    13
100
AcDbPolyline
 90
        4
 70
   128
 43
0.0
 10
-0.003328789025544
 20
0.0015037815485092
 10
-0.0006934412671285
 20
0.0001506244087038
 10
-0.0033808026367991
 20
-0.001271925717948
 10
-0.003328789025544
 20
0.0015037815485092
  0
LWPOLYLINE
  5
BD
330
2F
100
AcDbEntity
  8
Level 59
  6
Continuous
 62
     2
370
    13
100
AcDbPolyline
 90
        4
 70
   128
 43
0.0
 10
-0.0032464345225378
 20
0.0014529325235756
 10
-0.0007428540910062
 20
0.0001674330881679
 10
-0.0032958473464154
 20
-0.0011839893795587
 10
-0.0032464345225378
 20
0.0014529325235756
  0
LWPOLYLINE
  5
BE
330
2F
100
AcDbEntity
  8
Level 59
  6
Continuous
 62
     2
370
    13
100
AcDbPolyline
 90
        4
 70
   128
 43
0.0
 10
-0.0031681975768303
 20
0.0014046259956664
 10
-0.0007897961363566
 20
0.0001834012878811
 10
-0.0032151399273658
 20
-0.0011004498428298
 10
-0.0031681975768303
 20
0.0014046259956664
  0
LWPOLYLINE
  5
BF
330
2F
100
AcDbEntity
  8
Level 59
  6
Continuous
 62
     2
370
    13
100
AcDbPolyline
 90
        4
 70
   128
 43
0.0
 10
-0.0030938724936673
 20
0.0013575545518357
 10
-0.0008343913083285
 20
0.00019739127781
 10
-0.0031384676656392
 20
-0.0010222672200689
 10
-0.0030938724936673
 20
0.0013575545518357
  0
LWPOLYLINE
  5
C0
330
2F
100
AcDbEntity
  8
Level 59
  6
Continuous
 62
     2
370
    13
100
AcDbPolyline
 90
        4
 70
   128
 43
0.0
 10
-0.0030232636494032
 20
0.0013128366954558
 10
-0.0008767564928127
 20
0.0002106817835017
 10
-0.0030656291390728
 20
-0.000947993713187
 10
-0.0030232636494032
 20
0.0013128366954558
  0
LWPOLYLINE
  5
C1
330
2F
100
AcDbEntity
  8
Level 59
  6
Continuous
 62
     2
370
    13
100
AcDbPolyline
 90
        4
 70
   128
 43
0.0
 10
-0.0029561851863153
 20
0.0012703549302652
 10
-0.0009170033875544
 20
0.0002233075960569
 10
-0.0029964323862421
 20
-0.0008774340037233
 10
-0.0029561851863153
 20
0.0012703549302652
  0
LWPOLYLINE
  5
C2
330
2F
100
AcDbEntity
  8
Level 59
  6
Continuous
 62
     2
370
    13
100
AcDbPolyline
 90
        4
 70
   128
 43
0.0
 10
-0.002893639942625
 20
0.0012299972533342
 10
-0.0009564174321725
 20
0.0002353022858363
 10
-0.0029318750572222
 20
-0.0008104022339549
 10
-0.002893639942625
 20
0.0012299972533342
  0
LWPOLYLINE
  5
C3
330
2F
100
AcDbEntity
  8
Level 59
  6
Continuous
 62
     2
370
    13
100
AcDbPolyline
 90
        4
 70
   128
 43
0.0
 10
-0.0028342222357859
 20
0.0011904773094882
 10
-0.0009938605914486
 20
0.0002455171361431
 10
-0.0028705453657641
 20
-0.0007479021576586
 10
-0.0028342222357859
 20
0.0011904773094882
  0
LWPOLYLINE
  5
C4
330
2F
100
AcDbEntity
  8
Level 59
  6
Continuous
 62
     2
370
    13
100
AcDbPolyline
 90
        4
 70
   128
 43
0.0
 10
-0.0027777752006589
 20
0.0011529334391308
 10
-0.0010294317453535
 20
0.0002552214117862
 10
-0.0028122821741385
 20
-0.0006885271767327
 10
-0.0027777752006589
 20
0.0011529334391308
  0
LWPOLYLINE
  5
C5
330
2F
100
AcDbEntity
  8
Level 59
  6
Continuous
 62
     2
370
    13
100
AcDbPolyline
 90
        4
 70
   128
 43
0.0
 10
-0.0027241505172887
 20
0.0011172667622913
 10
-0.001063224280526
 20
0.0002644404431288
 10
-0.0027569322794274
 20
-0.0006321207312235
 10
-0.0027241505172887
 20
0.0011172667622913
  0
LWPOLYLINE
  5
C6
330
2F
100
AcDbEntity
  8
Level 59
  6
Continuous
 62
     2
370
    13
100
AcDbPolyline
 90
        4
 70
   128
 43
0.0
 10
-0.0026732071901608
 20
0.0010833832819604
 10
-0.0010953273110141
 20
0.0002731983397931
 10
-0.0027043498031556
 20
-0.0005785348063601
 10
-0.0026732071901608
 20
0.0010833832819604
  0
LWPOLYLINE
  5
C7
330
2F
100
AcDbEntity
  8
Level 59
  6
Continuous
 62
     2
370
    13
100
AcDbPolyline
 90
        4
 70
   128
 43
0.0
 10
-0.0026248109378337
 20
0.0010500140385143
 10
-0.0011258250679035
 20
0.0002803384502701
 10
-0.0026543964964751
 20
-0.0005288079470199
 10
-0.0026248109378337
 20
0.0010500140385143
  0
LWPOLYLINE
  5
C8
330
2F
100
AcDbEntity
  8
Level 59
  6
Continuous
 62
     2
370
    13
100
AcDbPolyline
 90
        4
 70
   128
 43
0.0
 10
-0.002578834498123
 20
0.0010147734000672
 10
-0.0011547978148746
 20
0.000283581652272
 10
-0.0026069408246101
 20
-0.0004851075777459
 10
-0.002578834498123
 20
0.0010147734000672
  0
LWPOLYLINE
  5
C9
330
2F
100
AcDbEntity
  8
Level 59
  6
Continuous
 62
     2
370
    13
100
AcDbPolyline
 90
        4
 70
   128
 43
0.0
 10
-0.0025351570177311
 20
0.000981294595172
 10
-0.0011823221533859
 20
0.0002866624958037
 10
-0.0025618579668569
 20
-0.0004435923337505
 10
-0.0025351570177311
 20
0.000981294595172
  0
LWPOLYLINE
  5
CA
330
2F
100
AcDbEntity
  8
Level 59
  6
Continuous
 62
     2
370
    13
100
AcDbPolyline
 90
        4
 70
   128
 43
0.0
 10
-0.0024936634418773
 20
0.0009483098849452
 10
-0.0012084701071199
 20
0.0002884093752862
 10
-0.0025190292062133
 20
-0.0004053328043458
 10
-0.0024936634418773
 20
0.0009483098849452
  0
LWPOLYLINE
  5
CB
330
2F
100
AcDbEntity
  8
Level 59
  6
Continuous
 62
     2
370
    13
100
AcDbPolyline
 90
        4
 70
   128
 43
0.0
 10
-0.0024542445142978
 20
0.0009157942442091
 10
-0.0012333106479078
 20
0.00028888882107
 10
-0.00247834192938
 20
-0.0003701660206915
 10
-0.0024542445142978
 20
0.0009157942442091
  0
LWPOLYLINE
  5
CC
330
2F
100
AcDbEntity
  8
Level 59
  6
Continuous
 62
     2
370
    13
100
AcDbPolyline
 90
        4
 70
   128
 43
0.0
 10
-0.0024156172368542
 20
0.0008837244788965
 10
-0.001255729850154
 20
0.000288164311655
 10
-0.0024385097811822
 20
-0.0003379378643148
 10
-0.0024156172368542
 20
0.0008837244788965
  0
LWPOLYLINE
  5
CD
330
2F
100
AcDbEntity
  8
Level 59
  6
Continuous
 62
     2
370
    13
100
AcDbPolyline
 90
        4
 70
   128
 43
0.0
 10
-0.0023789211706899
 20
0.0008508981597338
 10
-0.0012770281075471
 20
0.0002851161229285
 10
-0.0024006692709128
 20
-0.000309681081576
 10
-0.0023789211706899
 20
0.0008508981597338
  0
LWPOLYLINE
  5
CE
330
2F
100
AcDbEntity
  8
Level 59
  6
Continuous
 62
     2
370
    13
100
AcDbPolyline
 90
        4
 70
   128
 43
0.0
 10
-0.0023428806421094
 20
0.0008197131260109
 10
-0.0012960823389384
 20
0.0002822202215643
 10
-0.0023635413678395
 20
-0.0002828370006409
 10
-0.0023428806421094
 20
0.0008197131260109
  0
LWPOLYLINE
  5
CF
330
2F
100
AcDbEntity
  8
Level 59
  6
Continuous
 62
     2
370
    13
100
AcDbPolyline
 90
        4
 70
   128
 43
0.0
 10
-0.0023086422315132
 20
0.0007900875881222
 10
-0.001314183782464
 20
0.0002794692831202
 10
-0.0023282699056977
 20
-0.0002573351237526
 10
-0.0023086422315132
 20
0.0007900875881222
  0
LWPOLYLINE
  5
D0
330
2F
100
AcDbEntity
  8
Level 59
  6
Continuous
 62
     2
370
    13
100
AcDbPolyline
 90
        4
 70
   128
 43
0.0
 10
-0.0022761156041137
 20
0.0007595831171606
 10
-0.0013313800469984
 20
0.000274495681631
 10
-0.0022947621082186
 20
-0.0002354683065279
 10
-0.0022761156041137
 20
0.0007595831171606
  0
LWPOLYLINE
  5
D1
330
2F
100
AcDbEntity
  8
Level 59
  6
Continuous
 62
     2
370
    13
100
AcDbPolyline
 90
        4
 70
   128
 43
0.0
 10
-0.0022452153080842
 20
0.0007306039613025
 10
-0.0013477166051208
 20
0.0002697708059938
 10
-0.0022629294717245
 20
-0.0002146949674978
 10
-0.0022452153080842
 20
0.0007306039613025
  0
LWPOLYLINE
  5
D2
330
2F
100
AcDbEntity
  8
Level 59
  6
Continuous
 62
     2
370
    13
100
AcDbPolyline
 90
        4
 70
   128
 43
0.0
 10
-0.0022158601641894
 20
0.0007030738242744
 10
-0.0013632361827447
 20
0.0002652821436201
 10
-0.0022326886806847
 20
-0.0001949601733451
 10
-0.0022158601641894
 20
0.0007030738242744
  0
LWPOLYLINE
  5
D3
330
2F
100
AcDbEntity
  8
Level 59
  6
Continuous
 62
     2
370
    13
100
AcDbPolyline
 90
        4
 70
   128
 43
0.0
 10
-0.0021867934202091
 20
0.0006769200720237
 10
-0.0013768007446514
 20
0.0002610180974761
 10
-0.0022027805413981
 20
-0.0001762120426039
 10
-0.0021867934202091
 20
0.0006769200720237
  0
LWPOLYLINE
  5
D4
330
2F
100
AcDbEntity
  8
Level 59
  6
Continuous
 62
     2
370
    13
100
AcDbPolyline
 90
        4
 70
   128
 43
0.0
 10
-0.0021580007324441
 20
0.000652074037904
 10
-0.0013885076448866
 20
0.0002569670705282
 10
-0.00217318857387
 20
-0.0001584014404737
 10
-0.0021580007324441
 20
0.000652074037904
  0
LWPOLYLINE
  5
D5
330
2F
100
AcDbEntity
  8
Level 59
  6
Continuous
 62
     2
370
    13
100
AcDbPolyline
 90
        4
 70
   128
 43
0.0
 10
-0.0021306476027711
 20
0.0006272902615436
 10
-0.0013996292001096
 20
0.000251938840907
 10
-0.0021450761436811
 20
-0.0001426615192114
 10
-0.0021306476027711
 20
0.0006272902615436
  0
LWPOLYLINE
  5
D6
330
2F
100
AcDbEntity
  8
Level 59
  6
Continuous
 62
     2
370
    13
100
AcDbPolyline
 90
        4
 70
   128
 43
0.0
 10
-0.0021046623126924
 20
0.0006037458418531
 10
-0.0014101947080903
 20
0.0002471617786187
 10
-0.0021183693960385
 20
-0.0001277083651234
 10
-0.0021046623126924
 20
0.0006037458418531
  0
LWPOLYLINE
  5
D7
330
2F
100
AcDbEntity
  8
Level 59
  6
Continuous
 62
     2
370
    13
100
AcDbPolyline
 90
        4
 70
   128
 43
0.0
 10
-0.0020799761955626
 20
0.0005813785210731
 10
-0.0014202319406718
 20
0.0002426236762597
 10
-0.0020929978331857
 20
-0.0001135029145177
 10
-0.0020799761955626
 20
0.0005813785210731
  0
LWPOLYLINE
  5
D8
330
2F
100
AcDbEntity
  8
Level 59
  6
Continuous
 62
     2
370
    13
100
AcDbPolyline
 90
        4
 70
   128
 43
0.0
 10
-0.0020553450117496
 20
0.0005601297036653
 10
-0.0014285879085664
 20
0.000238312631611
 10
-0.0020677156895655
 20
-0.0001000076296274
 10
-0.0020553450117496
 20
0.0005601297036653
  0
LWPOLYLINE
  5
D9
330
2F
100
AcDbEntity
  8
Level 59
  6
Continuous
 62
     2
370
    13
100
AcDbPolyline
 90
        4
 70
   128
 43
0.0
 10
-0.002031945554979
 20
0.0005387630848109
 10
-0.0014365260780661
 20
0.0002330368968779
 10
-0.0020436976226079
 20
-0.000088367259743
 10
-0.002031945554979
 20
0.0005387630848109
  0
LWPOLYLINE
  5
DA
330
2F
100
AcDbEntity
  8
Level 59
  6
Continuous
 62
     2
370
    13
100
AcDbPolyline
 90
        4
 70
   128
 43
0.0
 10
-0.0020085366374705
 20
0.0005184649189733
 10
-0.0014428882717367
 20
0.0002280251472518
 10
-0.0020197012237922
 20
-0.0000773088778344
 10
-0.0020085366374705
 20
0.0005184649189733
  0
LWPOLYLINE
  5
DB
330
2F
100
AcDbEntity
  8
Level 59
  6
Continuous
 62
     2
370
    13
100
AcDbPolyline
 90
        4
 70
   128
 43
0.0
 10
-0.0019862981048005
 20
0.0004980016479995
 10
-0.0014489321573533
 20
0.000222083803827
 10
-0.0019969045075838
 20
-0.0000679833368938
 10
-0.0019862981048005
 20
0.0004980016479995
  0
LWPOLYLINE
  5
DC
330
2F
100
AcDbEntity
  8
Level 59
  6
Continuous
 62
     2
370
    13
100
AcDbPolyline
 90
        4
 70
   128
 43
0.0
 10
-0.0019639921262243
 20
0.0004773815118869
 10
-0.00145349467452
 20
0.0002152595599231
 10
-0.0019740684224982
 20
-0.0000603042695395
 10
-0.0019639921262243
 20
0.0004773815118869
  0
LWPOLYLINE
  5
DD
330
2F
100
AcDbEntity
  8
Level 59
  6
Continuous
 62
     2
370
    13
100
AcDbPolyline
 90
        4
 70
   128
 43
0.0
 10
-0.0019416223639637
 20
0.0004577922910245
 10
-0.0014566496780297
 20
0.000208776512955
 10
-0.0019511947996457
 20
-0.0000530091250344
 10
-0.0019416223639637
 20
0.0004577922910245
  0
LWPOLYLINE
  5
DE
330
2F
100
AcDbEntity
  8
Level 59
  6
Continuous
 62
     2
370
    13
100
AcDbPolyline
 90
        4
 70
   128
 43
0.0
 10
-0.0019203711050752
 20
0.0004403625598925
 10
-0.0014596469008451
 20
0.0002037977233192
 10
-0.0019294647053437
 20
-0.000044898525956
 10
-0.0019203711050752
 20
0.0004403625598925
  0
LWPOLYLINE
  5
DF
330
2F
100
AcDbEntity
  8
Level 59
  6
Continuous
 62
     2
370
    13
100
AcDbPolyline
 90
        4
 70
   128
 43
0.0
 10
-0.0019001821955014
 20
0.0004238044373913
 10
-0.0014624942777795
 20
0.0001990679647206
 10
-0.001908821375164
 20
-0.0000371935178686
 10
-0.0019001821955014
 20
0.0004238044373913
  0
LWPOLYLINE
  5
E0
330
2F
100
AcDbEntity
  8
Level 59
  6
Continuous
 62
     2
370
    13
100
AcDbPolyline
 90
        4
 70
   128
 43
0.0
 10
-0.0018798236030151
 20
0.000408074282052
 10
-0.0014640198980679
 20
0.0001945744193854
 10
-0.0018880306405833
 20
-0.0000298739585558
 10
-0.0018798236030151
 20
0.000408074282052
  0
LWPOLYLINE
  5
E1
330
2F
100
AcDbEntity
  8
Level 59
  6
Continuous
 62
     2
370
    13
100
AcDbPolyline
 90
        4
 70
   128
 43
0.0
 10
-0.0018604828028198
 20
0.0003931305887021
 10
-0.0014654695272681
 20
0.000190305795465
 10
-0.0018682796716207
 20
-0.0000229203161718
 10
-0.0018604828028198
 20
0.0003931305887021
  0
LWPOLYLINE
  5
E2
330
2F
100
AcDbEntity
  8
Level 59
  6
Continuous
 62
     2
370
    13
100
AcDbPolyline
 90
        4
 70
   128
 43
0.0
 10
-0.0018421091341897
 20
0.0003777541428877
 10
-0.0014668465224156
 20
0.0001850706503495
 10
-0.0018495162816247
 20
-0.000017494430372
 10
-0.0018421091341897
 20
0.0003777541428877
  0
LWPOLYLINE
  5
E3
330
2F
100
AcDbEntity
  8
Level 59
  6
Continuous
 62
     2
370
    13
100
AcDbPolyline
 90
        4
 70
   128
 43
0.0
 10
-0.0018222956022827
 20
0.0003631464583269
 10
-0.0014657960753195
 20
0.0001800970488601
 10
-0.0018293322550124
 20
-0.0000123398541215
 10
-0.0018222956022827
 20
0.0003631464583269
  0
LWPOLYLINE
  5
E4
330
2F
100
AcDbEntity
  8
Level 59
  6
Continuous
 62
     2
370
    13
100
AcDbPolyline
 90
        4
 70
   128
 43
0.0
 10
-0.001802293465987
 20
0.0003492690816981
 10
-0.0014636188848535
 20
0.0001753721732231
 10
-0.0018089782403025
 20
-0.000007442854091
 10
-0.001802293465987
 20
0.0003492690816981
  0
LWPOLYLINE
  5
E5
330
2F
100
AcDbEntity
  8
Level 59
  6
Continuous
 62
     2
370
    13
100
AcDbPolyline
 90
        4
 70
   128
 43
0.0
 10
-0.0017809326456496
 20
0.0003360856959747
 10
-0.001459191869869
 20
0.0001708835108493
 10
-0.0017872832422864
 20
-0.0000027906125065
 10
-0.0017809326456496
 20
0.0003360856959747
  0
LWPOLYLINE
  5
E6
330
2F
100
AcDbEntity
  8
Level 59
  6
Continuous
 62
     2
370
    13
100
AcDbPolyline
 90
        4
 70
   128
 43
0.0
 10
-0.0017594607379375
 20
0.0003212015137181
 10
-0.001453806878872
 20
0.0001642594683676
 10
-0.0017654936368906
 20
-0.000000731223487
 10
-0.0017594607379375
 20
0.0003212015137181
  0
LWPOLYLINE
  5
E7
330
2F
100
AcDbEntity
  8
Level 59
  6
Continuous
 62
     2
370
    13
100
AcDbPolyline
 90
        4
 70
   128
 43
0.0
 10
-0.0017390624713889
 20
0.0003070613727225
 10
-0.0014486913663134
 20
0.0001579665517136
 10
-0.0017447935422833
 20
0.0000012253181555
 10
-0.0017390624713889
 20
0.0003070613727225
  0
LWPOLYLINE
  5
E8
330
2F
100
AcDbEntity
  8
Level 59
  6
Continuous
 62
     2
370
    13
100
AcDbPolyline
 90
        4
 70
   128
 43
0.0
 10
-0.0017173253578294
 20
0.000294808191168
 10
-0.0014414728232671
 20
0.0001531681264687
 10
-0.0017227698599198
 20
0.000004264046144
 10
-0.0017173253578294
 20
0.000294808191168
  0
LWPOLYLINE
  5
E9
330
2F
100
AcDbEntity
  8
Level 59
  6
Continuous
 62
     2
370
    13
100
AcDbPolyline
 90
        4
 70
   128
 43
0.0
 10
-0.0016919580675679
 20
0.0002831678212837
 10
-0.0014298980681782
 20
0.0001486095767083
 10
-0.0016971303445537
 20
0.0000071507919553
 10
-0.0016919580675679
 20
0.0002831678212837
  0
LWPOLYLINE
  5
EA
330
2F
100
AcDbEntity
  8
Level 59
  6
Continuous
 62
     2
370
    13
100
AcDbPolyline
 90
        4
 70
   128
 43
0.0
 10
-0.001666679891354
 20
0.0002721094393749
 10
-0.0014177227088227
 20
0.0001442790002136
 10
-0.0016715933713797
 20
0.0000098931852168
 10
-0.001666679891354
 20
0.0002721094393749
  0
LWPOLYLINE
  5
EB
330
2F
100
AcDbEntity
  8
Level 59
  6
Continuous
 62
     2
370
    13
100
AcDbPolyline
 90
        4
 70
   128
 43
0.0
 10
-0.0016414862514113
 20
0.0002616040528581
 10
-0.0014049769585254
 20
0.0001401651051363
 10
-0.0016461540574356
 20
0.0000124985503708
 10
-0.0016414862514113
 20
0.0002616040528581
  0
LWPOLYLINE
  5
EC
330
2F
100
AcDbEntity
  8
Level 59
  6
Continuous
 62
     2
370
    13
100
AcDbPolyline
 90
        4
 70
   128
 43
0.0
 10
-0.0016151936399424
 20
0.0002528037354655
 10
-0.0013905099642932
 20
0.0001374367503891
 10
-0.0016196279793693
 20
0.0000161537522507
 10
-0.0016151936399424
 20
0.0002528037354655
  0
LWPOLYLINE
  5
ED
330
2F
100
AcDbEntity
  8
Level 59
  6
Continuous
 62
     2
370
    13
100
AcDbPolyline
 90
        4
 70
   128
 43
0.0
 10
-0.0015937534714805
 20
0.0002456236457411
 10
-0.0013803039643544
 20
0.0001360249641408
 10
-0.0015979662465284
 20
0.0000208059938352
 10
-0.0015937534714805
 20
0.0002456236457411
  0
ENDBLK
  5
31
330
2F
100
AcDbEntity
  8
0
100
AcDbBlockEnd
  0
ENDSEC
  0
SECTION
  2
ENTITIES
  0
INSERT
  5
EE
330
17
100
AcDbEntity
  8
0
100
AcDbBlockReference
  2
01015A
 10
0.0
 20
0.0
 30
0.0
  0
POINT
  5
139
330
17
100
AcDbEntity
  8
0
100
AcDbPoint
 10
-0.004
 20
0.0
 30
0.0
  0
POINT
  5
13A
330
17
100
AcDbEntity
  8
0
100
AcDbPoint
 10
0.004
 20
0.0
 30
0.0
  0
ENDSEC
  0
SECTION
  2
OBJECTS
  0
DICTIONARY
  5
A
330
0
100
AcDbDictionary
281
     1
  3
ACAD_CIP_PREVIOUS_PRODUCT_INFO
350
127
  3
ACAD_COLOR
350
B
  3
ACAD_DETAILVIEWSTYLE
350
123
  3
ACAD_GROUP
350
C
  3
ACAD_LAST_SAVED_VERSION_INFO
350
12A
  3
ACAD_LAYOUT
350
D
  3
ACAD_MATERIAL
350
E
  3
ACAD_MLEADERSTYLE
350
F
  3
ACAD_MLINESTYLE
350
10
  3
ACAD_PLOTSETTINGS
350
11
  3
ACAD_PLOTSTYLENAME
350
12
  3
ACAD_SCALELIST
350
14
  3
ACAD_SECTIONVIEWSTYLE
350
121
  3
ACAD_TABLESTYLE
350
15
  3
ACAD_VISUALSTYLE
350
16
  3
ACDB_RECOMPOSE_DATA
350
13C
  3
AcDbVariableDictionary
350
12B
  3
EZDXF_META
350
2D
  0
XRECORD
  5
127
102
{ACAD_REACTORS
330
A
102
}
330
A
100
AcDbXrecord
280
     1
300
ACD
300
2025
300

  0
DICTIONARY
  5
B
330
A
100
AcDbDictionary
281
     1
  0
DICTIONARY
  5
123
102
{ACAD_REACTORS
330
A
102
}
330
A
100
AcDbDictionary
281
     1
  3
Metric50
350
124
  0
DICTIONARY
  5
C
330
A
100
AcDbDictionary
281
     1
  0
XRECORD
  5
12A
102
{ACAD_REACTORS
330
A
102
}
330
A
100
AcDbXrecord
280
     1
300
{5CFE58FC-6227-F544-9B33-464BAE1EEA78}
301
{BD74B96B-5B64-9742-8E4B-B86B051E6E1A}
302
{5CFE58FC-6227-F544-9B33-464BAE1EEA78}
303
D:\SMHCoders - Job\testing ~ talha\GOSP_PID_Drawing_Creator\automated-approach\Symbols with points\plug_valve_closed.dxf
  0
DICTIONARY
  5
D
330
A
100
AcDbDictionary
281
     1
  3
Layout1
350
1E
  3
Model
350
1A
  0
DICTIONARY
  5
E
330
A
100
AcDbDictionary
281
     1
  3
ByBlock
350
1F
  3
ByLayer
350
20
  3
Global
350
21
  0
DICTIONARY
  5
F
330
A
100
AcDbDictionary
281
     1
  3
Standard
350
2C
  0
DICTIONARY
  5
10
330
A
100
AcDbDictionary
281
     1
  3
Standard
350
22
  0
DICTIONARY
  5
11
330
A
100
AcDbDictionary
281
     1
  0
ACDBDICTIONARYWDFLT
  5
12
330
A
100
AcDbDictionary
281
     1
  3
Normal
350
13
100
AcDbDictionaryWithDefault
340
13
  0
DICTIONARY
  5
14
330
A
100
AcDbDictionary
281
     1
  3
A0
350
110
  3
A1
350
111
  3
A2
350
112
  3
A3
350
113
  3
A4
350
114
  3
A5
350
115
  3
A6
350
116
  3
A7
350
117
  3
A8
350
118
  3
A9
350
119
  3
B0
350
11A
  3
B1
350
11B
  3
B2
350
11C
  3
B3
350
11D
  3
B4
350
11E
  3
B5
350
11F
  3
B6
350
120
  0
DICTIONARY
  5
121
102
{ACAD_REACTORS
330
A
102
}
330
A
100
AcDbDictionary
281
     1
  3
Metric50
350
122
  0
DICTIONARY
  5
15
330
A
100
AcDbDictionary
281
     1
  3
Standard
350
10F
  0
DICTIONARY
  5
16
330
A
100
AcDbDictionary
281
     1
  3
2dWireframe
350
FC
  3
Basic
350
FB
  3
Brighten
350
102
  3
ColorChange
350
106
  3
Conceptual
350
FF
  3
Dim
350
101
  3
EdgeColorOff
350
10E
  3
Facepattern
350
105
  3
Flat
350
F7
  3
FlatWithEdges
350
F8
  3
Gouraud
350
F9
  3
GouraudWithEdges
350
FA
  3
Hidden
350
FE
  3
JitterOff
350
10C
  3
Linepattern
350
104
  3
OverhangOff
350
10D
  3
Realistic
350
100
  3
Shaded
350
10B
  3
Shaded with edges
350
10A
  3
Shades of Gray
350
107
  3
Sketchy
350
108
  3
Thicken
350
103
  3
Wireframe
350
FD
  3
X-Ray
350
109
  0
XRECORD
  5
13C
102
{ACAD_REACTORS
330
A
102
}
330
A
100
AcDbXrecord
280
     1
 90
        1
330
10F
  0
DICTIONARY
  5
12B
102
{ACAD_REACTORS
330
A
102
}
330
A
100
AcDbDictionary
281
     1
  3
CANNOSCALE
350
130
  3
CMLEADERSTYLE
350
12D
  3
CTABLESTYLE
350
12C
  3
CVIEWDETAILSTYLE
350
12E
  3
CVIEWSECTIONSTYLE
350
12F
  0
DICTIONARY
  5
2D
330
A
100
AcDbDictionary
280
     1
281
     1
  3
CREATED_BY_EZDXF
360
2E
  3
WRITTEN_BY_EZDXF
360
F2
  0
ACDBDETAILVIEWSTYLE
  5
124
102
{ACAD_REACTORS
330
123
102
}
330
123
100
AcDbModelDocViewStyle
 70
     0
  3
Metric50
290
     0
300
Metric50
 90
        0
100
AcDbDetailViewStyle
 70
     0
 71
     0
 90
        3
 71
     1
340
29
 62
   256
 40
5.0
340
0
 62
   256
 40
5.0
300

 40
0.0
280
     1
 71
     2
340
26
 90
       25
 62
   256
 71
     3
340
29
 62
   256
 40
5.0
 90
        0
 40
15.0
 90
        1
300
%<\AcVar ViewDetailId>% (%<\AcVar ViewScale \f "%sn">%)
 71
     4
340
26
 90
       25
 62
   256
340
26
 90
       25
 62
   256
280
     0
  0
LAYOUT
  5
1E
330
D
100
AcDbPlotSettings
  1

  2
Microsoft Print to PDF
  4
A3
  6

 40
7.5
 41
20.0
 42
7.5
 43
20.0
 44
420.0
 45
297.0
 46
0.0
 47
0.0
 48
0.0
 49
0.0
140
0.0
141
0.0
142
1.0
143
1.0
 70
     0
 72
     1
 73
     0
 74
     5
  7

 75
    16
147
1.0
 76
     0
 77
     2
 78
   300
148
0.0
149
0.0
100
AcDbLayout
  1
Layout1
 70
     1
 71
     1
 10
0.0
 20
0.0
 11
420.0
 21
297.0
 12
0.0
 22
0.0
 32
0.0
 14
1.000000000000000E+20
 24
1.000000000000000E+20
 34
1.000000000000000E+20
 15
-1.000000000000000E+20
 25
-1.000000000000000E+20
 35
-1.000000000000000E+20
146
0.0
 13
0.0
 23
0.0
 33
0.0
 16
1.0
 26
0.0
 36
0.0
 17
0.0
 27
1.0
 37
0.0
 76
     0
330
1B
  0
LAYOUT
  5
1A
330
D
100
AcDbPlotSettings
  1

  2
Microsoft Print to PDF
  4
A3
  6

 40
7.5
 41
20.0
 42
7.5
 43
20.0
 44
420.0
 45
297.0
 46
0.0
 47
0.0
 48
0.0
 49
0.0
140
0.0
141
0.0
142
1.0
143
1.0
 70
  1024
 72
     1
 73
     0
 74
     5
  7

 75
    16
147
1.0
 76
     0
 77
     2
 78
   300
148
0.0
149
0.0
100
AcDbLayout
  1
Model
 70
     1
 71
     0
 10
0.0
 20
0.0
 11
420.0
 21
297.0
 12
0.0
 22
0.0
 32
0.0
 14
1.000000000000000E+20
 24
1.000000000000000E+20
 34
1.000000000000000E+20
 15
-1.000000000000000E+20
 25
-1.000000000000000E+20
 35
-1.000000000000000E+20
146
0.0
 13
0.0
 23
0.0
 33
0.0
 16
1.0
 26
0.0
 36
0.0
 17
0.0
 27
1.0
 37
0.0
 76
     1
330
17
331
23
  0
MATERIAL
  5
1F
102
{ACAD_REACTORS
330
E
102
}
330
E
100
AcDbMaterial
  1
ByBlock
 71
     1
 91
-1023410177
 73
     1
 78
     1
172
     1
176
     1
270
     1
273
     1
274
     1
 94
       63
  0
MATERIAL
  5
20
102
{ACAD_REACTORS
330
E
102
}
330
E
100
AcDbMaterial
  1
ByLayer
 71
     1
 91
-1023410177
 73
     1
 78
     1
172
     1
176
     1
270
     1
273
     1
274
     1
 94
       63
  0
MATERIAL
  5
21
102
{ACAD_REACTORS
330
E
102
}
330
E
100
AcDbMaterial
  1
Global
 71
     1
 91
-1023410177
 73
     1
 78
     1
172
     1
176
     1
270
     1
273
     1
274
     1
 94
       63
  0
MLEADERSTYLE
  5
2C
102
{ACAD_REACTORS
330
F
102
}
330
F
100
AcDbMLeaderStyle
179
     2
170
     2
171
     1
172
     0
 90
        2
 40
0.0
 41
0.0
173
     1
 91
-1056964608
 92
       -2
290
     1
 42
2.0
291
     1
 43
8.0
  3
Standard
 44
4.0
300

342
29
174
     1
178
     1
175
     1
176
     0
 93
-1056964608
 45
4.0
292
     0
297
     0
 46
4.0
 94
-1056964608
 47
1.0
 49
1.0
140
1.0
293
     1
141
0.0
294
     1
177
     0
142
1.0
295
     0
296
     0
143
3.75
271
     0
272
     9
273
     9
298
     0
  0
MLINESTYLE
  5
22
102
{ACAD_REACTORS
330
10
102
}
330
10
100
AcDbMlineStyle
  2
STANDARD
 70
     0
  3

 62
   256
 51
90.0
 52
90.0
 71
     2
 49
0.5
 62
   256
  6
BYLAYER
 49
-0.5
 62
   256
  6
BYLAYER
  0
ACDBPLACEHOLDER
  5
13
330
12
  0
SCALE
  5
110
102
{ACAD_REACTORS
330
14
102
}
330
14
100
AcDbScale
 70
     0
300
1:1
140
1.0
141
1.0
290
     1
  0
SCALE
  5
111
102
{ACAD_REACTORS
330
14
102
}
330
14
100
AcDbScale
 70
     0
300
1:2
140
1.0
141
2.0
290
     0
  0
SCALE
  5
112
102
{ACAD_REACTORS
330
14
102
}
330
14
100
AcDbScale
 70
     0
300
1:4
140
1.0
141
4.0
290
     0
  0
SCALE
  5
113
102
{ACAD_REACTORS
330
14
102
}
330
14
100
AcDbScale
 70
     0
300
1:5
140
1.0
141
5.0
290
     0
  0
SCALE
  5
114
102
{ACAD_REACTORS
330
14
102
}
330
14
100
AcDbScale
 70
     0
300
1:8
140
1.0
141
8.0
290
     0
  0
SCALE
  5
115
102
{ACAD_REACTORS
330
14
102
}
330
14
100
AcDbScale
 70
     0
300
1:10
140
1.0
141
10.0
290
     0
  0
SCALE
  5
116
102
{ACAD_REACTORS
330
14
102
}
330
14
100
AcDbScale
 70
     0
300
1:16
140
1.0
141
16.0
290
     0
  0
SCALE
  5
117
102
{ACAD_REACTORS
330
14
102
}
330
14
100
AcDbScale
 70
     0
300
1:20
140
1.0
141
20.0
290
     0
  0
SCALE
  5
118
102
{ACAD_REACTORS
330
14
102
}
330
14
100
AcDbScale
 70
     0
300
1:30
140
1.0
141
30.0
290
     0
  0
SCALE
  5
119
102
{ACAD_REACTORS
330
14
102
}
330
14
100
AcDbScale
 70
     0
300
1:40
140
1.0
141
40.0
290
     0
  0
SCALE
  5
11A
102
{ACAD_REACTORS
330
14
102
}
330
14
100
AcDbScale
 70
     0
300
1:50
140
1.0
141
50.0
290
     0
  0
SCALE
  5
11B
102
{ACAD_REACTORS
330
14
102
}
330
14
100
AcDbScale
 70
     0
300
1:100
140
1.0
141
100.0
290
     0
  0
SCALE
  5
11C
102
{ACAD_REACTORS
330
14
102
}
330
14
100
AcDbScale
 70
     0
300
2:1
140
2.0
141
1.0
290
     0
  0
SCALE
  5
11D
102
{ACAD_REACTORS
330
14
102
}
330
14
100
AcDbScale
 70
     0
300
4:1
140
4.0
141
1.0
290
     0
  0
SCALE
  5
11E
102
{ACAD_REACTORS
330
14
102
}
330
14
100
AcDbScale
 70
     0
300
8:1
140
8.0
141
1.0
290
     0
  0
SCALE
  5
11F
102
{ACAD_REACTORS
330
14
102
}
330
14
100
AcDbScale
 70
     0
300
10:1
140
10.0
141
1.0
290
     0
  0
SCALE
  5
120
102
{ACAD_REACTORS
330
14
102
}
330
14
100
AcDbScale
 70
     0
300
100:1
140
100.0
141
1.0
290
     0
  0
ACDBSECTIONVIEWSTYLE
  5
122
102
{ACAD_REACTORS
330
121
102
}
330
121
100
AcDbModelDocViewStyle
 70
     0
  3
Metric50
290
     0
300
Metric50
 90
        0
100
AcDbSectionViewStyle
 70
     0
 71
     0
 90
      102
 71
     1
340
29
 62
   256
 40
5.0
340
0
340
0
 62
   256
 40
5.0
300
I, O, Q, S, X, Z
 40
10.0
 90
        0
 40
2.5
 90
        0
 71
     2
340
26
 90
       25
 62
   256
340
26
 90
       50
 62
   256
 40
5.0
 40
2.5
 40
5.0
 71
     3
340
29
 62
   256
 40
5.0
 90
        0
 40
15.0
 90
        1
300
%<\AcVar ViewSectionStartId>%-%<\AcVar ViewSectionEndId>% (%<\AcVar ViewScale \f "%sn">%)
 71
     4
 62
   256
 62
   257
300
ANSI31
 40
1.0
 90
        0
290
     0
290
     0
 90
        6
 40
0.0
 40
1.570796326794896
 40
0.2617993877991494
 40
1.308996938995747
 40
-0.2617993877991494
 40
1.832595714594045
  0
TABLESTYLE
  5
10F
102
{ACAD_XDICTIONARY
360
132
102
}
102
{ACAD_REACTORS
330
15
102
}
330
15
100
AcDbTableStyle
280
     0
  3
Standard
 70
     0
 71
     0
 40
1.5
 41
1.5
280
     0
281
     0
  7
Standard
140
4.5
170
     2
 62
     0
 63
     7
283
     0
 90
      512
 91
        0
  1

274
    -2
284
     1
 64
     0
275
    -2
285
     1
 65
     0
276
    -2
286
     1
 66
     0
277
    -2
287
     1
 67
     0
278
    -2
288
     1
 68
     0
279
    -2
289
     1
 69
     0
  7
Standard
140
6.0
170
     5
 62
     0
 63
     7
283
     0
 90
      512
 91
        0
  1

274
    -2
284
     1
 64
     0
275
    -2
285
     1
 65
     0
276
    -2
286
     1
 66
     0
277
    -2
287
     1
 67
     0
278
    -2
288
     1
 68
     0
279
    -2
289
     1
 69
     0
  7
Standard
140
4.5
170
     5
 62
     0
 63
     7
283
     0
 90
      512
 91
        0
  1

274
    -2
284
     1
 64
     0
275
    -2
285
     1
 65
     0
276
    -2
286
     1
 66
     0
277
    -2
287
     1
 67
     0
278
    -2
288
     1
 68
     0
279
    -2
289
     1
 69
     0
  0
VISUALSTYLE
  5
FC
102
{ACAD_REACTORS
330
16
102
}
330
16
100
AcDbVisualStyle
  2
2dWireframe
 70
     4
177
     3
291
     0
 70
    58
 90
        0
176
     1
 90
        2
176
     1
 90
        0
176
     1
 90
        0
176
     1
 40
0.6
176
     1
 40
30.0
176
     1
 62
     7
420
 16777215
176
     1
 90
        1
176
     1
 90
        4
176
     1
 62
     7
176
     1
 62
   257
176
     1
 90
        1
176
     1
 90
        1
176
     1
 40
1.0
176
     1
 90
        0
176
     1
 62
   257
176
     1
 40
1.0
176
     1
 90
        1
176
     1
 90
        6
176
     1
 90
        2
176
     1
 62
     7
176
     1
 90
        5
176
     1
 90
        0
176
     1
 90
        0
176
     1
290
     0
176
     1
 90
        1
176
     1
 40
0.0
176
     1
 90
        0
176
     1
290
     1
176
     1
290
     1
176
     1
290
     0
176
     1
290
     0
176
     1
290
     0
176
     1
290
     0
176
     1
290
     0
176
     1
290
     0
176
     1
290
     0
176
     1
 90
       50
176
     1
 40
0.0
176
     1
 40
1.0
176
     1
 90
        0
176
     1
 62
    18
176
     1
 90
       50
176
     1
 90
        3
176
     1
 62
     5
420
      255
176
     1
290
     0
176
     1
 90
       50
176
     1
 90
       50
176
     1
 90
       50
176
     1
290
     0
176
     1
 90
       50
176
     1
 62
   256
176
     0
 40
1.0
176
     0
 90
        2
176
     1
  1
strokes_ogs.tif
176
     1
290
     0
176
     1
 40
1.0
176
     1
 40
1.0
176
     1
  0
VISUALSTYLE
  5
FB
102
{ACAD_REACTORS
330
16
102
}
330
16
100
AcDbVisualStyle
  2
Basic
 70
     7
177
     3
291
     1
 70
    58
 90
        1
176
     1
 90
        0
176
     1
 90
        1
176
     1
 90
        0
176
     1
 40
0.6
176
     1
 40
30.0
176
     1
 62
     7
420
 16777215
176
     1
 90
        0
176
     1
 90
        4
176
     1
 62
     7
176
     1
 62
   257
176
     1
 90
        1
176
     1
 90
        1
176
     1
 40
1.0
176
     1
 90
        8
176
     1
 62
     7
176
     1
 40
1.0
176
     1
 90
        1
176
     1
 90
        6
176
     1
 90
        2
176
     1
 62
     7
176
     1
 90
        5
176
     1
 90
        0
176
     1
 90
        0
176
     1
290
     0
176
     1
 90
        1
176
     1
 40
0.0
176
     1
 90
        0
176
     1
290
     0
176
     1
290
     1
176
     1
290
     1
176
     1
290
     0
176
     1
290
     0
176
     1
290
     0
176
     1
290
     0
176
     1
290
     0
176
     1
290
     0
176
     1
 90
       50
176
     1
 40
0.0
176
     1
 40
1.0
176
     1
 90
        0
176
     1
 62
    18
176
     1
 90
       50
176
     1
 90
        3
176
     1
 62
     5
420
      255
176
     1
290
     0
176
     1
 90
       50
176
     1
 90
       50
176
     1
 90
       50
176
     1
290
     0
176
     1
 90
       50
176
     1
 62
   256
176
     0
 40
1.0
176
     0
 90
        2
176
     1
  1
strokes_ogs.tif
176
     1
290
     0
176
     1
 40
1.0
176
     1
 40
1.0
176
     1
  0
VISUALSTYLE
  5
102
102
{ACAD_REACTORS
330
16
102
}
330
16
100
AcDbVisualStyle
  2
Brighten
 70
    12
177
     3
291
     1
 70
    58
 90
        2
176
     1
 90
        2
176
     1
 90
        0
176
     1
 90
        0
176
     1
 40
0.6
176
     1
 40
30.0
176
     1
 62
     7
420
 16777215
176
     1
 90
        1
176
     1
 90
        4
176
     1
 62
     7
176
     1
 62
   257
176
     1
 90
        1
176
     1
 90
        1
176
     1
 40
1.0
176
     1
 90
        8
176
     1
 62
     7
176
     1
 40
1.0
176
     1
 90
        1
176
     1
 90
        6
176
     1
 90
        2
176
     1
 62
     7
176
     1
 90
        5
176
     1
 90
        0
176
     1
 90
        0
176
     1
290
     0
176
     1
 90
        1
176
     1
 40
50.0
176
     1
 90
        0
176
     1
290
     0
176
     1
290
     1
176
     1
290
     1
176
     1
290
     0
176
     1
290
     0
176
     1
290
     0
176
     1
290
     0
176
     1
290
     0
176
     1
290
     0
176
     1
 90
       50
176
     1
 40
0.0
176
     1
 40
1.0
176
     1
 90
        0
176
     1
 62
    18
176
     1
 90
       50
176
     1
 90
        3
176
     1
 62
     5
420
      255
176
     1
290
     0
176
     1
 90
       50
176
     1
 90
       50
176
     1
 90
       50
176
     1
290
     0
176
     1
 90
       50
176
     1
 62
   256
176
     0
 40
1.0
176
     0
 90
        2
176
     1
  1
strokes_ogs.tif
176
     1
290
     0
176
     1
 40
1.0
176
     1
 40
1.0
176
     1
  0
VISUALSTYLE
  5
106
102
{ACAD_REACTORS
330
16
102
}
330
16
100
AcDbVisualStyle
  2
ColorChange
 70
    16
177
     3
291
     1
 70
    58
 90
        2
176
     1
 90
        2
176
     1
 90
        3
176
     1
 90
        0
176
     1
 40
0.6
176
     1
 40
30.0
176
     1
 62
     8
420
  8421504
176
     1
 90
        1
176
     1
 90
        4
176
     1
 62
     7
176
     1
 62
   257
176
     1
 90
        1
176
     1
 90
        1
176
     1
 40
1.0
176
     1
 90
        8
176
     1
 62
     8
420
  8421504
176
     1
 40
1.0
176
     1
 90
        1
176
     1
 90
        6
176
     1
 90
        2
176
     1
 62
     7
176
     1
 90
        5
176
     1
 90
        0
176
     1
 90
        0
176
     1
290
     0
176
     1
 90
        1
176
     1
 40
0.0
176
     1
 90
        0
176
     1
290
     0
176
     1
290
     1
176
     1
290
     1
176
     1
290
     0
176
     1
290
     0
176
     1
290
     0
176
     1
290
     0
176
     1
290
     0
176
     1
290
     0
176
     1
 90
       50
176
     1
 40
0.0
176
     1
 40
1.0
176
     1
 90
        0
176
     1
 62
    18
176
     1
 90
       50
176
     1
 90
        3
176
     1
 62
     5
420
      255
176
     1
290
     0
176
     1
 90
       50
176
     1
 90
       50
176
     1
 90
       50
176
     1
290
     0
176
     1
 90
       50
176
     1
 62
   256
176
     0
 40
1.0
176
     0
 90
        2
176
     1
  1
strokes_ogs.tif
176
     1
290
     0
176
     1
 40
1.0
176
     1
 40
1.0
176
     1
  0
VISUALSTYLE
  5
FF
102
{ACAD_REACTORS
330
16
102
}
330
16
100
AcDbVisualStyle
  2
Conceptual
 70
     9
177
     3
291
     0
 70
    58
 90
        3
176
     1
 90
        2
176
     1
 90
        0
176
     1
 90
        0
176
     1
 40
0.6
176
     1
 40
30.0
176
     1
 62
     7
420
 16777215
176
     1
 90
        2
176
     1
 90
        2
176
     1
 62
     7
176
     1
 62
   257
176
     1
 90
        1
176
     1
 90
        1
176
     1
 40
179.0
176
     1
 90
        8
176
     1
 62
     7
176
     1
 40
1.0
176
     1
 90
        1
176
     1
 90
        6
176
     1
 90
        2
176
     1
 62
     7
176
     1
 90
        3
176
     1
 90
        0
176
     1
 90
        0
176
     1
290
     0
176
     1
 90
        1
176
     1
 40
0.0
176
     1
 90
        0
176
     1
290
     0
176
     1
290
     1
176
     1
290
     1
176
     1
290
     0
176
     1
290
     0
176
     1
290
     0
176
     1
290
     0
176
     1
290
     0
176
     1
290
     0
176
     1
 90
       50
176
     1
 40
0.0
176
     1
 40
1.0
176
     1
 90
        0
176
     1
 62
    18
176
     1
 90
       50
176
     1
 90
        3
176
     1
 62
     5
420
      255
176
     1
290
     0
176
     1
 90
       50
176
     1
 90
       50
176
     1
 90
       50
176
     1
290
     0
176
     1
 90
       50
176
     1
 62
   256
176
     0
 40
1.0
176
     0
 90
        2
176
     1
  1
strokes_ogs.tif
176
     1
290
     0
176
     1
 40
1.0
176
     1
 40
1.0
176
     1
  0
VISUALSTYLE
  5
101
102
{ACAD_REACTORS
330
16
102
}
330
16
100
AcDbVisualStyle
  2
Dim
 70
    11
177
     3
291
     1
 70
    58
 90
        2
176
     1
 90
        2
176
     1
 90
        0
176
     1
 90
        0
176
     1
 40
0.6
176
     1
 40
30.0
176
     1
 62
     7
420
 16777215
176
     1
 90
        1
176
     1
 90
        4
176
     1
 62
     7
176
     1
 62
   257
176
     1
 90
        1
176
     1
 90
        1
176
     1
 40
1.0
176
     1
 90
        8
176
     1
 62
     7
176
     1
 40
1.0
176
     1
 90
        1
176
     1
 90
        6
176
     1
 90
        2
176
     1
 62
     7
176
     1
 90
        5
176
     1
 90
        0
176
     1
 90
        0
176
     1
290
     0
176
     1
 90
        1
176
     1
 40
-50.0
176
     1
 90
        0
176
     1
290
     0
176
     1
290
     1
176
     1
290
     1
176
     1
290
     0
176
     1
290
     0
176
     1
290
     0
176
     1
290
     0
176
     1
290
     0
176
     1
290
     0
176
     1
 90
       50
176
     1
 40
0.0
176
     1
 40
1.0
176
     1
 90
        0
176
     1
 62
    18
176
     1
 90
       50
176
     1
 90
        3
176
     1
 62
     5
420
      255
176
     1
290
     0
176
     1
 90
       50
176
     1
 90
       50
176
     1
 90
       50
176
     1
290
     0
176
     1
 90
       50
176
     1
 62
   256
176
     0
 40
1.0
176
     0
 90
        2
176
     1
  1
strokes_ogs.tif
176
     1
290
     0
176
     1
 40
1.0
176
     1
 40
1.0
176
     1
  0
VISUALSTYLE
  5
10E
102
{ACAD_REACTORS
330
16
102
}
330
16
100
AcDbVisualStyle
  2
EdgeColorOff
 70
    22
177
     3
291
     1
 70
    58
 90
        2
176
     0
 90
        2
176
     0
 90
        0
176
     0
 90
        0
176
     0
 40
0.6
176
     0
 40
30.0
176
     0
 62
     7
420
 16777215
176
     0
 90
        1
176
     0
 90
        4
176
     0
 62
     7
176
     0
 62
   257
176
     0
 90
        1
176
     0
 90
        1
176
     0
 40
1.0
176
     0
 90
        8
176
     2
 62
     7
176
     0
 40
1.0
176
     0
 90
        1
176
     0
 90
        6
176
     0
 90
        2
176
     0
 62
     7
176
     0
 90
        5
176
     0
 90
        0
176
     0
 90
        0
176
     0
290
     0
176
     0
 90
        1
176
     0
 40
0.0
176
     0
 90
        0
176
     0
290
     0
176
     1
290
     1
176
     1
290
     1
176
     1
290
     0
176
     1
290
     0
176
     1
290
     0
176
     1
290
     0
176
     1
290
     0
176
     1
290
     0
176
     1
 90
       50
176
     0
 40
0.0
176
     0
 40
1.0
176
     0
 90
        0
176
     0
 62
    18
176
     0
 90
       50
176
     0
 90
        3
176
     0
 62
     5
420
      255
176
     0
290
     0
176
     1
 90
       50
176
     0
 90
       50
176
     0
 90
       50
176
     0
290
     0
176
     1
 90
       50
176
     0
 62
   256
176
     0
 40
1.0
176
     0
 90
        2
176
     0
  1
strokes_ogs.tif
176
     0
290
     0
176
     1
 40
1.0
176
     0
 40
1.0
176
     0
  0
VISUALSTYLE
  5
105
102
{ACAD_REACTORS
330
16
102
}
330
16
100
AcDbVisualStyle
  2
Facepattern
 70
    15
177
     3
291
     1
 70
    58
 90
        2
176
     1
 90
        2
176
     1
 90
        0
176
     1
 90
        0
176
     1
 40
0.6
176
     1
 40
30.0
176
     1
 62
     7
420
 16777215
176
     1
 90
        1
176
     1
 90
        4
176
     1
 62
     7
176
     1
 62
   257
176
     1
 90
        1
176
     1
 90
        1
176
     1
 40
1.0
176
     1
 90
        8
176
     1
 62
     7
176
     1
 40
1.0
176
     1
 90
        1
176
     1
 90
        6
176
     1
 90
        2
176
     1
 62
     7
176
     1
 90
        5
176
     1
 90
        0
176
     1
 90
        0
176
     1
290
     0
176
     1
 90
        1
176
     1
 40
0.0
176
     1
 90
        0
176
     1
290
     0
176
     1
290
     1
176
     1
290
     1
176
     1
290
     0
176
     1
290
     0
176
     1
290
     0
176
     1
290
     0
176
     1
290
     0
176
     1
290
     0
176
     1
 90
       50
176
     1
 40
0.0
176
     1
 40
1.0
176
     1
 90
        0
176
     1
 62
    18
176
     1
 90
       50
176
     1
 90
        3
176
     1
 62
     5
420
      255
176
     1
290
     0
176
     1
 90
       50
176
     1
 90
       50
176
     1
 90
       50
176
     1
290
     0
176
     1
 90
       50
176
     1
 62
   256
176
     0
 40
1.0
176
     0
 90
        2
176
     1
  1
strokes_ogs.tif
176
     1
290
     0
176
     1
 40
1.0
176
     1
 40
1.0
176
     1
  0
VISUALSTYLE
  5
F7
102
{ACAD_REACTORS
330
16
102
}
330
16
100
AcDbVisualStyle
  2
Flat
 70
     0
177
     3
291
     1
 70
    58
 90
        2
176
     1
 90
        1
176
     1
 90
        1
176
     1
 90
        2
176
     1
 40
0.6
176
     1
 40
30.0
176
     1
 62
     7
420
 16777215
176
     1
 90
        0
176
     1
 90
        0
176
     1
 62
     7
176
     1
 62
   257
176
     1
 90
        1
176
     1
 90
        1
176
     1
 40
1.0
176
     1
 90
        8
176
     1
 62
     7
176
     1
 40
1.0
176
     1
 90
        1
176
     1
 90
        6
176
     1
 90
        2
176
     1
 62
     7
176
     1
 90
        5
176
     1
 90
        0
176
     1
 90
        0
176
     1
290
     0
176
     1
 90
       13
176
     1
 40
0.0
176
     1
 90
        0
176
     1
290
     0
176
     1
290
     1
176
     1
290
     1
176
     1
290
     0
176
     1
290
     0
176
     1
290
     0
176
     1
290
     0
176
     1
290
     0
176
     1
290
     0
176
     1
 90
       50
176
     1
 40
0.0
176
     1
 40
1.0
176
     1
 90
        0
176
     1
 62
    18
176
     1
 90
       50
176
     1
 90
        3
176
     1
 62
     5
420
      255
176
     1
290
     0
176
     1
 90
       50
176
     1
 90
       50
176
     1
 90
       50
176
     1
290
     0
176
     1
 90
       50
176
     1
 62
   256
176
     0
 40
1.0
176
     0
 90
        2
176
     1
  1
strokes_ogs.tif
176
     1
290
     0
176
     1
 40
1.0
176
     1
 40
1.0
176
     1
  0
VISUALSTYLE
  5
F8
102
{ACAD_REACTORS
330
16
102
}
330
16
100
AcDbVisualStyle
  2
FlatWithEdges
 70
     1
177
     3
291
     1
 70
    58
 90
        2
176
     1
 90
        1
176
     1
 90
        1
176
     1
 90
        2
176
     1
 40
0.6
176
     1
 40
30.0
176
     1
 62
     7
420
 16777215
176
     1
 90
        1
176
     1
 90
        0
176
     1
 62
     7
176
     1
 62
   257
176
     1
 90
        1
176
     1
 90
        1
176
     1
 40
1.0
176
     1
 90
        0
176
     1
 62
   257
176
     1
 40
1.0
176
     1
 90
        1
176
     1
 90
        6
176
     1
 90
        2
176
     1
 62
     7
176
     1
 90
        5
176
     1
 90
        0
176
     1
 90
        0
176
     1
290
     0
176
     1
 90
       13
176
     1
 40
0.0
176
     1
 90
        0
176
     1
290
     0
176
     1
290
     1
176
     1
290
     1
176
     1
290
     0
176
     1
290
     0
176
     1
290
     0
176
     1
290
     0
176
     1
290
     0
176
     1
290
     0
176
     1
 90
       50
176
     1
 40
0.0
176
     1
 40
1.0
176
     1
 90
        0
176
     1
 62
    18
176
     1
 90
       50
176
     1
 90
        3
176
     1
 62
     5
420
      255
176
     1
290
     0
176
     1
 90
       50
176
     1
 90
       50
176
     1
 90
       50
176
     1
290
     0
176
     1
 90
       50
176
     1
 62
   256
176
     0
 40
1.0
176
     0
 90
        2
176
     1
  1
strokes_ogs.tif
176
     1
290
     0
176
     1
 40
1.0
176
     1
 40
1.0
176
     1
  0
VISUALSTYLE
  5
F9
102
{ACAD_REACTORS
330
16
102
}
330
16
100
AcDbVisualStyle
  2
Gouraud
 70
     2
177
     3
291
     1
 70
    58
 90
        2
176
     1
 90
        2
176
     1
 90
        1
176
     1
 90
        2
176
     1
 40
0.6
176
     1
 40
30.0
176
     1
 62
     7
420
 16777215
176
     1
 90
        0
176
     1
 90
        0
176
     1
 62
     7
176
     1
 62
   257
176
     1
 90
        1
176
     1
 90
        1
176
     1
 40
1.0
176
     1
 90
        0
176
     1
 62
     7
176
     1
 40
1.0
176
     1
 90
        1
176
     1
 90
        6
176
     1
 90
        2
176
     1
 62
     7
176
     1
 90
        5
176
     1
 90
        0
176
     1
 90
        0
176
     1
290
     0
176
     1
 90
       13
176
     1
 40
0.0
176
     1
 90
        0
176
     1
290
     0
176
     1
290
     1
176
     1
290
     1
176
     1
290
     0
176
     1
290
     0
176
     1
290
     0
176
     1
290
     0
176
     1
290
     0
176
     1
290
     0
176
     1
 90
       50
176
     1
 40
0.0
176
     1
 40
1.0
176
     1
 90
        0
176
     1
 62
    18
176
     1
 90
       50
176
     1
 90
        3
176
     1
 62
     5
420
      255
176
     1
290
     0
176
     1
 90
       50
176
     1
 90
       50
176
     1
 90
       50
176
     1
290
     0
176
     1
 90
       50
176
     1
 62
   256
176
     0
 40
1.0
176
     0
 90
        2
176
     1
  1
strokes_ogs.tif
176
     1
290
     0
176
     1
 40
1.0
176
     1
 40
1.0
176
     1
  0
VISUALSTYLE
  5
FA
102
{ACAD_REACTORS
330
16
102
}
330
16
100
AcDbVisualStyle
  2
GouraudWithEdges
 70
     3
177
     3
291
     1
 70
    58
 90
        2
176
     1
 90
        2
176
     1
 90
        1
176
     1
 90
        2
176
     1
 40
0.6
176
     1
 40
30.0
176
     1
 62
     7
420
 16777215
176
     1
 90
        1
176
     1
 90
        0
176
     1
 62
     7
176
     1
 62
   257
176
     1
 90
        1
176
     1
 90
        1
176
     1
 40
1.0
176
     1
 90
        0
176
     1
 62
   257
176
     1
 40
1.0
176
     1
 90
        1
176
     1
 90
        6
176
     1
 90
        2
176
     1
 62
     7
176
     1
 90
        5
176
     1
 90
        0
176
     1
 90
        0
176
     1
290
     0
176
     1
 90
       13
176
     1
 40
0.0
176
     1
 90
        0
176
     1
290
     0
176
     1
290
     1
176
     1
290
     1
176
     1
290
     0
176
     1
290
     0
176
     1
290
     0
176
     1
290
     0
176
     1
290
     0
176
     1
290
     0
176
     1
 90
       50
176
     1
 40
0.0
176
     1
 40
1.0
176
     1
 90
        0
176
     1
 62
    18
176
     1
 90
       50
176
     1
 90
        3
176
     1
 62
     5
420
      255
176
     1
290
     0
176
     1
 90
       50
176
     1
 90
       50
176
     1
 90
       50
176
     1
290
     0
176
     1
 90
       50
176
     1
 62
   256
176
     0
 40
1.0
176
     0
 90
        2
176
     1
  1
strokes_ogs.tif
176
     1
290
     0
176
     1
 40
1.0
176
     1
 40
1.0
176
     1
  0
VISUALSTYLE
  5
FE
102
{ACAD_REACTORS
330
16
102
}
330
16
100
AcDbVisualStyle
  2
Hidden
 70
     6
177
     3
291
     0
 70
    58
 90
        1
176
     1
 90
        2
176
     1
 90
        2
176
     1
 90
        0
176
     1
 40
0.6
176
     1
 40
30.0
176
     1
 62
     7
420
 16777215
176
     1
 90
        2
176
     1
 90
        2
176
     1
 62
     7
176
     1
 62
   257
176
     1
 90
        2
176
     1
 90
        1
176
     1
 40
40.0
176
     1
 90
        0
176
     1
 62
   257
176
     1
 40
1.0
176
     1
 90
        1
176
     1
 90
        6
176
     1
 90
        2
176
     1
 62
     7
176
     1
 90
        3
176
     1
 90
        0
176
     1
 90
        0
176
     1
290
     0
176
     1
 90
        1
176
     1
 40
0.0
176
     1
 90
        0
176
     1
290
     0
176
     1
290
     1
176
     1
290
     1
176
     1
290
     0
176
     1
290
     0
176
     1
290
     0
176
     1
290
     0
176
     1
290
     0
176
     1
290
     0
176
     1
 90
       50
176
     1
 40
0.0
176
     1
 40
1.0
176
     1
 90
        0
176
     1
 62
    18
176
     1
 90
       50
176
     1
 90
        3
176
     1
 62
     5
420
      255
176
     1
290
     0
176
     1
 90
       50
176
     1
 90
       50
176
     1
 90
       50
176
     1
290
     0
176
     1
 90
       50
176
     1
 62
   256
176
     0
 40
1.0
176
     0
 90
        2
176
     1
  1
strokes_ogs.tif
176
     1
290
     0
176
     1
 40
1.0
176
     1
 40
1.0
176
     1
  0
VISUALSTYLE
  5
10C
102
{ACAD_REACTORS
330
16
102
}
330
16
100
AcDbVisualStyle
  2
JitterOff
 70
    20
177
     3
291
     1
 70
    58
 90
        2
176
     0
 90
        2
176
     0
 90
        0
176
     0
 90
        0
176
     0
 40
0.6
176
     0
 40
30.0
176
     0
 62
     7
420
 16777215
176
     0
 90
        1
176
     0
 90
        4
176
     0
 62
     7
176
     0
 62
   257
176
     0
 90
        1
176
     0
 90
        1
176
     0
 40
1.0
176
     0
 90
       10
176
     2
 62
     7
176
     0
 40
1.0
176
     0
 90
        1
176
     0
 90
        6
176
     0
 90
        2
176
     0
 62
     7
176
     0
 90
        5
176
     0
 90
        0
176
     0
 90
        0
176
     0
290
     0
176
     0
 90
        1
176
     0
 40
0.0
176
     0
 90
        0
176
     0
290
     0
176
     1
290
     1
176
     1
290
     1
176
     1
290
     0
176
     1
290
     0
176
     1
290
     0
176
     1
290
     0
176
     1
290
     0
176
     1
290
     0
176
     1
 90
       50
176
     0
 40
0.0
176
     0
 40
1.0
176
     0
 90
        0
176
     0
 62
    18
176
     0
 90
       50
176
     0
 90
        3
176
     0
 62
     5
420
      255
176
     0
290
     0
176
     1
 90
       50
176
     0
 90
       50
176
     0
 90
       50
176
     0
290
     0
176
     1
 90
       50
176
     0
 62
   256
176
     0
 40
1.0
176
     0
 90
        2
176
     0
  1
strokes_ogs.tif
176
     0
290
     0
176
     1
 40
1.0
176
     0
 40
1.0
176
     0
  0
VISUALSTYLE
  5
104
102
{ACAD_REACTORS
330
16
102
}
330
16
100
AcDbVisualStyle
  2
Linepattern
 70
    14
177
     3
291
     1
 70
    58
 90
        2
176
     1
 90
        2
176
     1
 90
        0
176
     1
 90
        0
176
     1
 40
0.6
176
     1
 40
30.0
176
     1
 62
     7
420
 16777215
176
     1
 90
        1
176
     1
 90
        4
176
     1
 62
     7
176
     1
 62
   257
176
     1
 90
        7
176
     1
 90
        7
176
     1
 40
1.0
176
     1
 90
        8
176
     1
 62
     7
176
     1
 40
1.0
176
     1
 90
        1
176
     1
 90
        6
176
     1
 90
        2
176
     1
 62
     7
176
     1
 90
        5
176
     1
 90
        0
176
     1
 90
        0
176
     1
290
     0
176
     1
 90
        1
176
     1
 40
0.0
176
     1
 90
        0
176
     1
290
     0
176
     1
290
     1
176
     1
290
     1
176
     1
290
     0
176
     1
290
     0
176
     1
290
     0
176
     1
290
     0
176
     1
290
     0
176
     1
290
     0
176
     1
 90
       50
176
     1
 40
0.0
176
     1
 40
1.0
176
     1
 90
        0
176
     1
 62
    18
176
     1
 90
       50
176
     1
 90
        3
176
     1
 62
     5
420
      255
176
     1
290
     0
176
     1
 90
       50
176
     1
 90
       50
176
     1
 90
       50
176
     1
290
     0
176
     1
 90
       50
176
     1
 62
   256
176
     0
 40
1.0
176
     0
 90
        2
176
     1
  1
strokes_ogs.tif
176
     1
290
     0
176
     1
 40
1.0
176
     1
 40
1.0
176
     1
  0
VISUALSTYLE
  5
10D
102
{ACAD_REACTORS
330
16
102
}
330
16
100
AcDbVisualStyle
  2
OverhangOff
 70
    21
177
     3
291
     1
 70
    58
 90
        2
176
     0
 90
        2
176
     0
 90
        0
176
     0
 90
        0
176
     0
 40
0.6
176
     0
 40
30.0
176
     0
 62
     7
420
 16777215
176
     0
 90
        1
176
     0
 90
        4
176
     0
 62
     7
176
     0
 62
   257
176
     0
 90
        1
176
     0
 90
        1
176
     0
 40
1.0
176
     0
 90
        9
176
     2
 62
     7
176
     0
 40
1.0
176
     0
 90
        1
176
     0
 90
        6
176
     0
 90
        2
176
     0
 62
     7
176
     0
 90
        5
176
     0
 90
        0
176
     0
 90
        0
176
     0
290
     0
176
     0
 90
        1
176
     0
 40
0.0
176
     0
 90
        0
176
     0
290
     0
176
     1
290
     1
176
     1
290
     1
176
     1
290
     0
176
     1
290
     0
176
     1
290
     0
176
     1
290
     0
176
     1
290
     0
176
     1
290
     0
176
     1
 90
       50
176
     0
 40
0.0
176
     0
 40
1.0
176
     0
 90
        0
176
     0
 62
    18
176
     0
 90
       50
176
     0
 90
        3
176
     0
 62
     5
420
      255
176
     0
290
     0
176
     1
 90
       50
176
     0
 90
       50
176
     0
 90
       50
176
     0
290
     0
176
     1
 90
       50
176
     0
 62
   256
176
     0
 40
1.0
176
     0
 90
        2
176
     0
  1
strokes_ogs.tif
176
     0
290
     0
176
     1
 40
1.0
176
     0
 40
1.0
176
     0
  0
VISUALSTYLE
  5
100
102
{ACAD_REACTORS
330
16
102
}
330
16
100
AcDbVisualStyle
  2
Realistic
 70
     8
177
     3
291
     0
 70
    58
 90
        2
176
     1
 90
        3
176
     1
 90
        0
176
     1
 90
        2
176
     1
 40
0.6
176
     1
 40
30.0
176
     1
 62
     7
420
 16777215
176
     1
 90
        0
176
     1
 90
        0
176
     1
 62
     7
176
     1
 62
   257
176
     1
 90
        1
176
     1
 90
        1
176
     1
 40
1.0
176
     1
 90
        8
176
     1
 62
   257
176
     1
 40
1.0
176
     1
 90
        1
176
     1
 90
        6
176
     1
 90
        2
176
     1
 62
     7
176
     1
 90
        3
176
     1
 90
        0
176
     1
 90
        0
176
     1
290
     0
176
     1
 90
       13
176
     1
 40
0.0
176
     1
 90
        0
176
     1
290
     0
176
     1
290
     1
176
     1
290
     1
176
     1
290
     0
176
     1
290
     0
176
     1
290
     0
176
     1
290
     0
176
     1
290
     0
176
     1
290
     0
176
     1
 90
       50
176
     1
 40
0.0
176
     1
 40
1.0
176
     1
 90
        0
176
     1
 62
    18
176
     1
 90
       50
176
     1
 90
        3
176
     1
 62
     5
420
      255
176
     1
290
     0
176
     1
 90
       50
176
     1
 90
       50
176
     1
 90
       50
176
     1
290
     0
176
     1
 90
       50
176
     1
 62
   256
176
     0
 40
1.0
176
     0
 90
        2
176
     1
  1
strokes_ogs.tif
176
     1
290
     0
176
     1
 40
1.0
176
     1
 40
1.0
176
     1
  0
VISUALSTYLE
  5
10B
102
{ACAD_REACTORS
330
16
102
}
330
16
100
AcDbVisualStyle
  2
Shaded
 70
    27
177
     3
291
     0
 70
    58
 90
        2
176
     1
 90
        2
176
     1
 90
        1
176
     1
 90
        2
176
     1
 40
0.6
176
     1
 40
30.0
176
     1
 62
     7
420
 16777215
176
     1
 90
        0
176
     1
 90
        4
176
     1
 62
     7
176
     1
 62
   257
176
     1
 90
        1
176
     1
 90
        1
176
     1
 40
1.0
176
     1
 90
        8
176
     1
 62
   257
176
     1
 40
1.0
176
     1
 90
        1
176
     1
 90
        6
176
     1
 90
        2
176
     1
 62
     8
420
  7895160
176
     1
 90
        3
176
     1
 90
        0
176
     1
 90
        0
176
     1
290
     0
176
     1
 90
        5
176
     1
 40
0.0
176
     1
 90
        0
176
     1
290
     0
176
     1
290
     1
176
     1
290
     1
176
     1
290
     0
176
     1
290
     0
176
     1
290
     0
176
     1
290
     0
176
     1
290
     0
176
     1
290
     0
176
     1
 90
       50
176
     1
 40
0.0
176
     1
 40
1.0
176
     1
 90
        0
176
     1
 62
    18
176
     1
 90
       50
176
     1
 90
        3
176
     1
 62
     5
420
      255
176
     1
290
     0
176
     1
 90
       50
176
     1
 90
       50
176
     1
 90
       50
176
     1
290
     0
176
     1
 90
       50
176
     1
 62
   256
176
     0
 40
1.0
176
     0
 90
        2
176
     1
  1
strokes_ogs.tif
176
     1
290
     0
176
     1
 40
1.0
176
     1
 40
1.0
176
     1
  0
VISUALSTYLE
  5
10A
102
{ACAD_REACTORS
330
16
102
}
330
16
100
AcDbVisualStyle
  2
Shaded with edges
 70
    26
177
     3
291
     0
 70
    58
 90
        2
176
     1
 90
        2
176
     1
 90
        1
176
     1
 90
        2
176
     1
 40
0.6
176
     1
 40
30.0
176
     1
 62
     7
420
 16777215
176
     1
 90
        1
176
     1
 90
        2
176
     1
 62
     7
176
     1
 62
   257
176
     1
 90
        2
176
     1
 90
        1
176
     1
 40
1.0
176
     1
 90
        8
176
     1
 62
   257
176
     1
 40
1.0
176
     1
 90
        1
176
     1
 90
        6
176
     1
 90
        2
176
     1
 62
     7
176
     1
 90
        3
176
     1
 90
        0
176
     1
 90
        0
176
     1
290
     0
176
     1
 90
        5
176
     1
 40
0.0
176
     1
 90
        0
176
     1
290
     0
176
     1
290
     1
176
     1
290
     1
176
     1
290
     0
176
     1
290
     0
176
     1
290
     0
176
     1
290
     0
176
     1
290
     0
176
     1
290
     0
176
     1
 90
       50
176
     1
 40
0.0
176
     1
 40
1.0
176
     1
 90
        0
176
     1
 62
    18
176
     1
 90
       50
176
     1
 90
        3
176
     1
 62
     5
420
      255
176
     1
290
     0
176
     1
 90
       50
176
     1
 90
       50
176
     1
 90
       50
176
     1
290
     0
176
     1
 90
       50
176
     1
 62
   256
176
     0
 40
1.0
176
     0
 90
        2
176
     1
  1
strokes_ogs.tif
176
     1
290
     0
176
     1
 40
1.0
176
     1
 40
1.0
176
     1
  0
VISUALSTYLE
  5
107
102
{ACAD_REACTORS
330
16
102
}
330
16
100
AcDbVisualStyle
  2
Shades of Gray
 70
    23
177
     3
291
     0
 70
    58
 90
        2
176
     1
 90
        2
176
     1
 90
        3
176
     1
 90
        0
176
     1
 40
0.6
176
     1
 40
30.0
176
     1
 62
     7
420
 16777215
176
     1
 90
        2
176
     1
 90
        2
176
     1
 62
     7
176
     1
 62
     7
176
     1
 90
        1
176
     1
 90
        1
176
     1
 40
40.0
176
     1
 90
        8
176
     1
 62
     7
176
     1
 40
1.0
176
     1
 90
        1
176
     1
 90
        6
176
     1
 90
        2
176
     1
 62
     7
176
     1
 90
        3
176
     1
 90
        0
176
     1
 90
        0
176
     1
290
     0
176
     1
 90
        1
176
     1
 40
0.0
176
     1
 90
        0
176
     1
290
     0
176
     1
290
     1
176
     1
290
     1
176
     1
290
     0
176
     1
290
     0
176
     1
290
     0
176
     1
290
     0
176
     1
290
     0
176
     1
290
     0
176
     1
 90
       50
176
     1
 40
0.0
176
     1
 40
1.0
176
     1
 90
        0
176
     1
 62
    18
176
     1
 90
       50
176
     1
 90
        3
176
     1
 62
     5
420
      255
176
     1
290
     0
176
     1
 90
       50
176
     1
 90
       50
176
     1
 90
       50
176
     1
290
     0
176
     1
 90
       50
176
     1
 62
   256
176
     0
 40
1.0
176
     0
 90
        2
176
     1
  1
strokes_ogs.tif
176
     1
290
     0
176
     1
 40
1.0
176
     1
 40
1.0
176
     1
  0
VISUALSTYLE
  5
108
102
{ACAD_REACTORS
330
16
102
}
330
16
100
AcDbVisualStyle
  2
Sketchy
 70
    24
177
     3
291
     0
 70
    58
 90
        1
176
     1
 90
        2
176
     1
 90
        2
176
     1
 90
        0
176
     1
 40
0.6
176
     1
 40
30.0
176
     1
 62
     7
420
 16777215
176
     1
 90
        2
176
     1
 90
        2
176
     1
 62
     7
176
     1
 62
     7
176
     1
 90
        1
176
     1
 90
        1
176
     1
 40
40.0
176
     1
 90
       11
176
     1
 62
     7
176
     1
 40
1.0
176
     1
 90
        1
176
     1
 90
        6
176
     1
 90
        2
176
     1
 62
     7
176
     1
 90
        6
176
     1
 90
        0
176
     1
 90
        0
176
     1
290
     0
176
     1
 90
        1
176
     1
 40
0.0
176
     1
 90
        0
176
     1
290
     0
176
     1
290
     1
176
     1
290
     1
176
     1
290
     0
176
     1
290
     0
176
     1
290
     0
176
     1
290
     0
176
     1
290
     0
176
     1
290
     0
176
     1
 90
       50
176
     1
 40
0.0
176
     1
 40
1.0
176
     1
 90
        0
176
     1
 62
    18
176
     1
 90
       50
176
     1
 90
        3
176
     1
 62
     5
420
      255
176
     1
290
     0
176
     1
 90
       50
176
     1
 90
       50
176
     1
 90
       50
176
     1
290
     0
176
     1
 90
       50
176
     1
 62
   256
176
     0
 40
1.0
176
     0
 90
        2
176
     1
  1
strokes_ogs.tif
176
     1
290
     0
176
     1
 40
1.0
176
     1
 40
1.0
176
     1
  0
VISUALSTYLE
  5
103
102
{ACAD_REACTORS
330
16
102
}
330
16
100
AcDbVisualStyle
  2
Thicken
 70
    13
177
     3
291
     1
 70
    58
 90
        2
176
     1
 90
        2
176
     1
 90
        0
176
     1
 90
        0
176
     1
 40
0.6
176
     1
 40
30.0
176
     1
 62
     7
420
 16777215
176
     1
 90
        1
176
     1
 90
        4
176
     1
 62
     7
176
     1
 62
   257
176
     1
 90
        1
176
     1
 90
        1
176
     1
 40
1.0
176
     1
 90
       12
176
     1
 62
     7
176
     1
 40
1.0
176
     1
 90
        1
176
     1
 90
        6
176
     1
 90
        2
176
     1
 62
     7
176
     1
 90
        5
176
     1
 90
        0
176
     1
 90
        0
176
     1
290
     0
176
     1
 90
        1
176
     1
 40
0.0
176
     1
 90
        0
176
     1
290
     0
176
     1
290
     1
176
     1
290
     1
176
     1
290
     0
176
     1
290
     0
176
     1
290
     0
176
     1
290
     0
176
     1
290
     0
176
     1
290
     0
176
     1
 90
       50
176
     1
 40
0.0
176
     1
 40
1.0
176
     1
 90
        0
176
     1
 62
    18
176
     1
 90
       50
176
     1
 90
        3
176
     1
 62
     5
420
      255
176
     1
290
     0
176
     1
 90
       50
176
     1
 90
       50
176
     1
 90
       50
176
     1
290
     0
176
     1
 90
       50
176
     1
 62
   256
176
     0
 40
1.0
176
     0
 90
        2
176
     1
  1
strokes_ogs.tif
176
     1
290
     0
176
     1
 40
1.0
176
     1
 40
1.0
176
     1
  0
VISUALSTYLE
  5
FD
102
{ACAD_REACTORS
330
16
102
}
330
16
100
AcDbVisualStyle
  2
Wireframe
 70
     5
177
     3
291
     0
 70
    58
 90
        0
176
     1
 90
        2
176
     1
 90
        0
176
     1
 90
        0
176
     1
 40
0.6
176
     1
 40
30.0
176
     1
 62
     7
420
 16777215
176
     1
 90
        1
176
     1
 90
        4
176
     1
 62
     7
176
     1
 62
   257
176
     1
 90
        1
176
     1
 90
        1
176
     1
 40
1.0
176
     1
 90
        0
176
     1
 62
   257
176
     1
 40
1.0
176
     1
 90
        1
176
     1
 90
        6
176
     1
 90
        2
176
     1
 62
     7
176
     1
 90
        3
176
     1
 90
        0
176
     1
 90
        0
176
     1
290
     0
176
     1
 90
        1
176
     1
 40
0.0
176
     1
 90
        0
176
     1
290
     0
176
     1
290
     1
176
     1
290
     1
176
     1
290
     0
176
     1
290
     0
176
     1
290
     0
176
     1
290
     0
176
     1
290
     0
176
     1
290
     0
176
     1
 90
       50
176
     1
 40
0.0
176
     1
 40
1.0
176
     1
 90
        0
176
     1
 62
    18
176
     1
 90
       50
176
     1
 90
        3
176
     1
 62
     5
420
      255
176
     1
290
     0
176
     1
 90
       50
176
     1
 90
       50
176
     1
 90
       50
176
     1
290
     0
176
     1
 90
       50
176
     1
 62
   256
176
     0
 40
1.0
176
     0
 90
        2
176
     1
  1
strokes_ogs.tif
176
     1
290
     0
176
     1
 40
1.0
176
     1
 40
1.0
176
     1
  0
VISUALSTYLE
  5
109
102
{ACAD_REACTORS
330
16
102
}
330
16
100
AcDbVisualStyle
  2
X-Ray
 70
    25
177
     3
291
     0
 70
    58
 90
        2
176
     1
 90
        2
176
     1
 90
        1
176
     1
 90
        1
176
     1
 40
0.5
176
     1
 40
30.0
176
     1
 62
     7
420
 16777215
176
     1
 90
        1
176
     1
 90
        0
176
     1
 62
     7
176
     1
 62
   257
176
     1
 90
        1
176
     1
 90
        1
176
     1
 40
1.0
176
     1
 90
        8
176
     1
 62
     7
176
     1
 40
1.0
176
     1
 90
        1
176
     1
 90
        6
176
     1
 90
        2
176
     1
 62
     7
176
     1
 90
        3
176
     1
 90
        0
176
     1
 90
        0
176
     1
290
     0
176
     1
 90
       13
176
     1
 40
0.0
176
     1
 90
        0
176
     1
290
     0
176
     1
290
     1
176
     1
290
     1
176
     1
290
     0
176
     1
290
     0
176
     1
290
     0
176
     1
290
     0
176
     1
290
     0
176
     1
290
     0
176
     1
 90
       50
176
     1
 40
0.0
176
     1
 40
1.0
176
     1
 90
        0
176
     1
 62
    18
176
     1
 90
       50
176
     1
 90
        3
176
     1
 62
     5
420
      255
176
     1
290
     0
176
     1
 90
       50
176
     1
 90
       50
176
     1
 90
       50
176
     1
290
     0
176
     1
 90
       50
176
     1
 62
   256
176
     0
 40
1.0
176
     0
 90
        2
176
     1
  1
strokes_ogs.tif
176
     1
290
     0
176
     1
 40
1.0
176
     1
 40
1.0
176
     1
  0
DICTIONARYVAR
  5
130
102
{ACAD_REACTORS
330
12B
102
}
330
12B
100
DictionaryVariables
280
     0
  1
1:1
  0
DICTIONARYVAR
  5
12D
102
{ACAD_REACTORS
330
12B
102
}
330
12B
100
DictionaryVariables
280
     0
  1
STANDARD
  0
DICTIONARYVAR
  5
12C
102
{ACAD_REACTORS
330
12B
102
}
330
12B
100
DictionaryVariables
280
     0
  1
STANDARD
  0
DICTIONARYVAR
  5
12E
102
{ACAD_REACTORS
330
12B
102
}
330
12B
100
DictionaryVariables
280
     0
  1
Metric50
  0
DICTIONARYVAR
  5
12F
102
{ACAD_REACTORS
330
12B
102
}
330
12B
100
DictionaryVariables
280
     0
  1
Metric50
  0
DICTIONARYVAR
  5
2E
330
2D
100
DictionaryVariables
280
     0
  1
1.4.0 @ 2025-04-02T17:04:43.728859+00:00
  0
DICTIONARYVAR
  5
F2
330
2D
100
DictionaryVariables
280
     0
  1
1.4.0 @ 2025-04-02T17:04:43.744840+00:00
  0
DICTIONARY
  5
132
330
10F
100
AcDbDictionary
280
     1
281
     1
  3
ACAD_ROUNDTRIP_2008_TABLESTYLE_CELLSTYLEMAP
360
13B
  0
CELLSTYLEMAP
  5
13B
102
{ACAD_REACTORS
330
132
102
}
330
132
100
AcDbCellStyleMap
 90
        3
300
CELLSTYLE
  1
TABLEFORMAT_BEGIN
 90
        5
170
     1
 91
        0
 92
    32768
 62
   257
 93
        1
300
CONTENTFORMAT
  1
CONTENTFORMAT_BEGIN
 90
        0
 91
        0
 92
      512
 93
        0
300

 40
0.0
140
1.0
 94
        5
 62
     0
340
29
144
6.0
309
CONTENTFORMAT_END
171
     1
301
MARGIN
  1
CELLMARGIN_BEGIN
 40
1.5
 40
1.5
 40
1.5
 40
1.5
 40
0.18
 40
0.18
309
CELLMARGIN_END
 94
        6
 95
        1
302
GRIDFORMAT
  1
GRIDFORMAT_BEGIN
 90
        0
 91
        1
 62
     0
 92
       -2
340
0
 93
        0
 40
1.125
309
GRIDFORMAT_END
 95
        2
302
GRIDFORMAT
  1
GRIDFORMAT_BEGIN
 90
        0
 91
        1
 62
     0
 92
       -2
340
0
 93
        0
 40
1.125
309
GRIDFORMAT_END
 95
        4
302
GRIDFORMAT
  1
GRIDFORMAT_BEGIN
 90
        0
 91
        1
 62
     0
 92
       -2
340
0
 93
        0
 40
1.125
309
GRIDFORMAT_END
 95
        8
302
GRIDFORMAT
  1
GRIDFORMAT_BEGIN
 90
        0
 91
        1
 62
     0
 92
       -2
340
0
 93
        0
 40
1.125
309
GRIDFORMAT_END
 95
       16
302
GRIDFORMAT
  1
GRIDFORMAT_BEGIN
 90
        0
 91
        1
 62
     0
 92
       -2
340
0
 93
        0
 40
1.125
309
GRIDFORMAT_END
 95
       32
302
GRIDFORMAT
  1
GRIDFORMAT_BEGIN
 90
        0
 91
        1
 62
     0
 92
       -2
340
0
 93
        0
 40
1.125
309
GRIDFORMAT_END
309
TABLEFORMAT_END
  1
CELLSTYLE_BEGIN
 90
        1
 91
        1
300
_TITLE
309
CELLSTYLE_END
300
CELLSTYLE
  1
TABLEFORMAT_BEGIN
 90
        5
170
     1
 91
        0
 92
        0
 62
   257
 93
        1
300
CONTENTFORMAT
  1
CONTENTFORMAT_BEGIN
 90
        0
 91
        0
 92
      512
 93
        0
300

 40
0.0
140
1.0
 94
        5
 62
     0
340
29
144
4.5
309
CONTENTFORMAT_END
171
     1
301
MARGIN
  1
CELLMARGIN_BEGIN
 40
1.5
 40
1.5
 40
1.5
 40
1.5
 40
0.18
 40
0.18
309
CELLMARGIN_END
 94
        6
 95
        1
302
GRIDFORMAT
  1
GRIDFORMAT_BEGIN
 90
        0
 91
        1
 62
     0
 92
       -2
340
0
 93
        0
 40
1.125
309
GRIDFORMAT_END
 95
        2
302
GRIDFORMAT
  1
GRIDFORMAT_BEGIN
 90
        0
 91
        1
 62
     0
 92
       -2
340
0
 93
        0
 40
1.125
309
GRIDFORMAT_END
 95
        4
302
GRIDFORMAT
  1
GRIDFORMAT_BEGIN
 90
        0
 91
        1
 62
     0
 92
       -2
340
0
 93
        0
 40
1.125
309
GRIDFORMAT_END
 95
        8
302
GRIDFORMAT
  1
GRIDFORMAT_BEGIN
 90
        0
 91
        1
 62
     0
 92
       -2
340
0
 93
        0
 40
1.125
309
GRIDFORMAT_END
 95
       16
302
GRIDFORMAT
  1
GRIDFORMAT_BEGIN
 90
        0
 91
        1
 62
     0
 92
       -2
340
0
 93
        0
 40
1.125
309
GRIDFORMAT_END
 95
       32
302
GRIDFORMAT
  1
GRIDFORMAT_BEGIN
 90
        0
 91
        1
 62
     0
 92
       -2
340
0
 93
        0
 40
1.125
309
GRIDFORMAT_END
309
TABLEFORMAT_END
  1
CELLSTYLE_BEGIN
 90
        2
 91
        1
300
_HEADER
309
CELLSTYLE_END
300
CELLSTYLE
  1
TABLEFORMAT_BEGIN
 90
        5
170
     1
 91
        0
 92
        0
 62
   257
 93
        1
300
CONTENTFORMAT
  1
CONTENTFORMAT_BEGIN
 90
        0
 91
        0
 92
      512
 93
        0
300

 40
0.0
140
1.0
 94
        2
 62
     0
340
29
144
4.5
309
CONTENTFORMAT_END
171
     1
301
MARGIN
  1
CELLMARGIN_BEGIN
 40
1.5
 40
1.5
 40
1.5
 40
1.5
 40
0.18
 40
0.18
309
CELLMARGIN_END
 94
        6
 95
        1
302
GRIDFORMAT
  1
GRIDFORMAT_BEGIN
 90
        0
 91
        1
 62
     0
 92
       -2
340
0
 93
        0
 40
1.125
309
GRIDFORMAT_END
 95
        2
302
GRIDFORMAT
  1
GRIDFORMAT_BEGIN
 90
        0
 91
        1
 62
     0
 92
       -2
340
0
 93
        0
 40
1.125
309
GRIDFORMAT_END
 95
        4
302
GRIDFORMAT
  1
GRIDFORMAT_BEGIN
 90
        0
 91
        1
 62
     0
 92
       -2
340
0
 93
        0
 40
1.125
309
GRIDFORMAT_END
 95
        8
302
GRIDFORMAT
  1
GRIDFORMAT_BEGIN
 90
        0
 91
        1
 62
     0
 92
       -2
340
0
 93
        0
 40
1.125
309
GRIDFORMAT_END
 95
       16
302
GRIDFORMAT
  1
GRIDFORMAT_BEGIN
 90
        0
 91
        1
 62
     0
 92
       -2
340
0
 93
        0
 40
1.125
309
GRIDFORMAT_END
 95
       32
302
GRIDFORMAT
  1
GRIDFORMAT_BEGIN
 90
        0
 91
        1
 62
     0
 92
       -2
340
0
 93
        0
 40
1.125
309
GRIDFORMAT_END
309
TABLEFORMAT_END
  1
CELLSTYLE_BEGIN
 90
        3
 91
        2
300
_DATA
309
CELLSTYLE_END
  0
ENDSEC
  0
EOF
